SplineFontDB: 3.0
FontName: Amburegul
FullName: Amburegul Banget
FamilyName: Amburegul
Weight: Regular
Copyright: Copyright (c) 2014, Aydi Rainkarnichi @aydiriku. 100% Free. Note: "Amburegul emeseyu bahrelway bahrelway..." :P
UComments: "2014-8-25: Created with FontForge (http://fontforge.org)" 
Version: 001.000 rev.2
ItalicAngle: 0
UnderlinePosition: -100
UnderlineWidth: 50
Ascent: 800
Descent: 200
sfntRevision: 0x00020000
LayerCount: 2
Layer: 0 0 "Back"  1
Layer: 1 0 "Fore"  0
XUID: [1021 828 -994197973 20273]
FSType: 0
OS2Version: 0
OS2_WeightWidthSlopeOnly: 0
OS2_UseTypoMetrics: 1
CreationTime: 1408912569
ModificationTime: 1411045515
PfmFamily: 17
TTFWeight: 400
TTFWidth: 5
LineGap: 90
VLineGap: 0
OS2TypoAscent: 0
OS2TypoAOffset: 1
OS2TypoDescent: 0
OS2TypoDOffset: 1
OS2TypoLinegap: 90
OS2WinAscent: 0
OS2WinAOffset: 1
OS2WinDescent: 0
OS2WinDOffset: 1
HheadAscent: 0
HheadAOffset: 1
HheadDescent: 0
HheadDOffset: 1
OS2Vendor: 'PfEd'
MarkAttachClasses: 1
DEI: 91125

StartChar: comma
Encoding: 44 44 0
Width: 250
VWidth: 1024
Flags: W
HStem: -120 316
VStem: 37 147<-53.1275 128.859>
LayerCount: 2
Fore
SplineSet
151 196 m 1
 154 157 165 119 177 82 c 0
 182 62 184 43 184 24 c 0
 184 1 180 -21 171 -44 c 0
 160 -73 137 -92 113 -111 c 0
 108 -114 104 -117 100 -120 c 2
 -46 -105 l 1
 -42 -103 -38 -100 -34 -97 c 0
 -12 -80 13 -65 24 -38 c 0
 33 -18 37 3 37 24 c 0
 37 42 35 59 30 77 c 0
 18 116 7 155 4 196 c 1
 151 196 l 1
EndSplineSet
Validated: 1
EndChar

StartChar: hyphen
Encoding: 45 45 1
Width: 631
VWidth: 1024
Flags: W
HStem: 294 179
LayerCount: 2
Fore
SplineSet
479 473 m 1
 609 413 l 1
 345 377 345 351 186 294 c 1
 -17 360 l 1
 221 433 267 455 479 473 c 1
EndSplineSet
Validated: 1
EndChar

StartChar: period
Encoding: 46 46 2
Width: 250
VWidth: 1024
Flags: W
HStem: 22 160<19.1161 146>
VStem: -1 170
LayerCount: 2
Fore
SplineSet
-1 182 m 1
 146 182 l 1
 159 93 l 2
 162 69 166 46 169 22 c 1
 22 22 l 1
 19 46 15 69 12 93 c 2
 -1 182 l 1
EndSplineSet
Validated: 1
EndChar

StartChar: zero
Encoding: 48 48 3
Width: 592
VWidth: 1024
Flags: W
HStem: 810 20G<123 202> 823 60<335.334 386.157>
VStem: -10 147<58.2012 478.037> 398 148<206.17 812.828>
LayerCount: 2
Fore
SplineSet
465 871 m 1x70
 482 861 499 851 511 836 c 0
 539 803 544 781 545 739 c 0
 546 660 546 581 546 502 c 0
 545 353 550 193 477 105 c 0
 442 65 408 36 356 20 c 0
 317 9 310 7 293 7 c 0
 282 7 266 8 230 8 c 0
 211 8 187 8 156 7 c 0
 154 7 152 7 149 7 c 0
 84 7 10 22 -5 77 c 0
 -9 99 -10 122 -10 145 c 0
 -10 164 -10 182 -10 200 c 0
 -10 208 -10 216 -10 224 c 0
 -10 282 -10 340 -3 398 c 0
 8 480 28 560 57 637 c 0
 78 704 102 772 144 830 c 1xb0
 202 824 l 1
 207 827 211 830 216 834 c 0
 221 839 226 845 232 849 c 0
 247 859 268 855 284 864 c 0
 291 866 312 873 319 874 c 0
 349 881 374 883 392 883 c 0
 418 883 432 879 432 879 c 1
 465 871 l 1x70
365 823 m 0x70
 364 823 363 822 362 821 c 0
 334 797 297 779 275 768 c 1
 259 770 l 1
 234 727 219 679 204 633 c 0
 176 556 155 477 144 396 c 0
 137 339 137 281 137 224 c 0
 138 215 138 207 138 198 c 0
 138 179 137 159 137 140 c 0
 137 120 138 100 142 80 c 0
 151 53 179 44 205 38 c 1
 257 50 296 79 331 116 c 0
 365 155 378 205 387 255 c 0
 398 337 398 419 398 502 c 0
 398 542 399 581 399 620 c 0
 399 660 398 700 398 739 c 0
 396 778 398 799 365 823 c 0x70
EndSplineSet
Validated: 1
EndChar

StartChar: one
Encoding: 49 49 4
Width: 334
VWidth: 1024
Flags: W
HStem: 999 20G<91 119>
VStem: 108 147<4.5774 798>
LayerCount: 2
Fore
SplineSet
94 1019 m 0
 144 1015 195 1007 246 1002 c 1
 254 949 255 896 255 843 c 0
 255 816 255 790 255 763 c 0
 255 734 255 704 255 674 c 0
 255 645 255 615 255 585 c 0
 255 526 254 466 253 407 c 0
 252 373 252 339 252 305 c 0
 252 259 252 212 253 166 c 0
 253 111 259 57 262 2 c 1
 115 1 l 1
 112 56 106 110 106 165 c 0
 105 212 105 259 105 305 c 0
 105 339 105 373 106 407 c 0
 108 466 108 526 108 585 c 0
 108 615 108 645 108 674 c 0
 108 704 108 734 108 763 c 0
 108 775 108 787 108 798 c 1
 96 774 84 750 76 725 c 1
 -72 730 l 1
 -51 792 -18 847 14 903 c 0
 35 934 50 969 72 998 c 0
 73 999 88 1019 94 1019 c 0
231 999 m 0
 228 998 226 996 224 994 c 1
 229 994 234 994 239 994 c 0
 242 994 234 1000 231 999 c 0
EndSplineSet
Validated: 1
EndChar

StartChar: two
Encoding: 50 50 5
Width: 660
VWidth: 1024
Flags: W
HStem: -39 27<472.161 567.372>
VStem: -17 147<550.955 777.611> 253 147<429.389 711.477>
LayerCount: 2
Fore
SplineSet
532 -12 m 0
 561 -18 627 -28 643 -39 c 1
 589 -39 535 -39 481 -39 c 0
 447 -39 412 -39 377 -33 c 0
 324 -24 271 -11 217 0 c 0
 189 5 159 11 131 16 c 0
 100 21 62 22 33 39 c 0
 25 43 15 53 18 66 c 0
 19 72 33 78 35 79 c 0
 49 89 60 104 70 119 c 0
 105 169 136 222 165 277 c 0
 205 351 240 429 252 516 c 0
 252 525 253 534 253 543 c 0
 253 599 245 654 232 708 c 0
 224 745 218 785 184 799 c 1
 177 797 170 794 163 790 c 0
 131 762 134 724 130 682 c 1
 130 637 135 589 153 547 c 1
 7 536 l 1
 -9 580 -17 627 -17 675 c 0
 -17 677 -17 680 -17 683 c 0
 -14 729 -13 768 16 804 c 1
 40 826 70 828 99 830 c 0
 124 830 134 830 143 830 c 0
 161 830 171 830 273 830 c 0
 291 830 306 829 324 822 c 0
 364 804 371 754 379 712 c 0
 393 658 400 601 400 545 c 0
 400 535 399 525 399 515 c 0
 388 425 352 345 312 268 c 0
 283 213 252 159 217 108 c 0
 205 88 190 72 173 58 c 1
 236 45 299 35 363 23 c 0
 417 14 479 -1 532 -12 c 0
EndSplineSet
Validated: 1
EndChar

StartChar: three
Encoding: 51 51 6
Width: 684
VWidth: 1024
Flags: W
HStem: 25 27<154.207 421.936> 663 157<66.236 161.869>
VStem: 8 147<663 732.077> 299 149<485.266 701.166> 516 147<90.0904 262.592>
LayerCount: 2
Fore
SplineSet
361 785 m 0
 385 767 405 743 422 716 c 0
 437 689 442 659 445 628 c 0
 446 607 448 586 448 567 c 0
 448 527 442 492 420 468 c 0
 411 460 401 453 391 447 c 1
 394 447 l 0
 446 437 491 403 535 371 c 0
 571 342 610 316 639 278 c 0
 658 250 660 217 662 183 c 0
 662 179 662 175 662 172 c 0
 662 160 663 148 663 136 c 0
 663 123 661 110 657 98 c 0
 655 93 652 89 649 84 c 0
 609 43 553 39 502 32 c 0
 421 26 340 26 259 25 c 1
 247 26 235 26 223 26 c 0
 194 26 164 24 133 24 c 0
 104 24 75 26 48 32 c 0
 10 40 -26 57 -61 75 c 0
 -86 90 -111 107 -134 126 c 1
 13 142 l 1
 56 108 107 78 165 62 c 0
 186 57 216 54 230 52 c 0
 272 53 314 54 356 57 c 0
 406 62 458 65 502 94 c 0
 505 97 508 99 510 103 c 0
 515 112 516 122 516 133 c 0
 516 147 514 162 514 175 c 0
 514 177 514 180 514 182 c 0
 513 213 511 242 492 266 c 0
 462 301 424 326 389 354 c 0
 346 384 301 418 249 421 c 0
 240 422 206 423 206 436 c 0
 206 440 209 446 217 453 c 0
 227 457 238 460 248 466 c 0
 262 475 251 472 274 482 c 1
 293 496 298 515 299 540 c 0
 299 554 299 568 299 582 c 0
 299 630 296 672 275 706 c 0
 254 736 232 758 199 773 c 0
 197 771 194 769 192 766 c 0
 173 733 165 695 155 657 c 1
 8 663 l 1
 18 701 27 740 45 775 c 0
 63 804 89 812 119 816 c 0
 166 817 199 820 229 820 c 0
 272 820 307 814 361 785 c 0
EndSplineSet
Validated: 1
EndChar

StartChar: four
Encoding: 52 52 7
Width: 584
VWidth: 1024
Flags: W
HStem: -4 21G<333 480> 316 54<263.764 333> 316 13<512 522> 329 5<516 558> 614 20G<338 490>
VStem: 333 147<-4 316 370 626.719>
LayerCount: 2
Fore
SplineSet
481 340 m 1xcc
 491 338 502 336 512 334 c 2
 558 329 l 1x9c
 480 316 l 1xac
 480 234 480 151 480 68 c 2
 480 -4 l 1
 333 -4 l 1
 333 103 333 210 333 316 c 1
 250 331 168 350 89 382 c 0
 65 392 5 408 -5 439 c 0
 -7 444 -7 449 -7 455 c 0
 -6 458 -5 463 -2 466 c 0
 12 485 28 482 51 508 c 1
 74 546 98 583 121 621 c 0
 158 674 192 728 225 784 c 0
 250 827 279 870 296 918 c 1
 443 910 l 1
 425 862 397 819 372 775 c 0
 339 718 305 663 268 610 c 0
 243 573 221 535 198 498 c 1
 170 467 165 457 147 438 c 1
 176 418 203 415 235 402 c 0
 267 390 300 379 334 370 c 1
 335 461 333 547 343 634 c 1
 490 630 l 1
 482 560 481 491 481 419 c 0
 481 393 481 367 481 340 c 1xcc
EndSplineSet
Validated: 1
EndChar

StartChar: five
Encoding: 53 53 8
Width: 559
VWidth: 1024
Flags: W
HStem: -54 58<-36.6487 89> 780 20G<1.5 133> 946 20G<304 487>
VStem: -3 147<536.019 691> 356 148<226.004 467.291>
LayerCount: 2
Fore
SplineSet
341 966 m 1
 487 954 l 1
 446 921 404 890 364 855 c 0
 309 808 252 762 194 718 c 0
 179 707 162 699 145 691 c 1
 144 691 l 1
 147 616 166 546 176 473 c 1
 191 480 206 486 221 492 c 0
 264 506 343 527 404 527 c 0
 437 527 466 521 480 504 c 0
 484 499 487 492 490 487 c 0
 501 450 504 411 504 372 c 0
 504 347 503 321 501 295 c 1
 491 229 462 167 418 114 c 0
 392 83 375 71 345 44 c 0
 308 12 264 -10 220 -32 c 1
 165 -46 120 -54 84 -54 c 2
 14 -54 l 2
 12 -54 10 -54 8 -54 c 0
 -22 -54 -38 -34 -53 -9 c 2
 -58 4 l 1
 89 10 l 1
 94 -1 l 2
 95 -3 97 -4 98 -6 c 0
 165 28 224 69 271 122 c 0
 315 172 344 232 354 296 c 0
 356 317 356 339 356 360 c 0
 356 378 356 395 355 413 c 0
 354 430 353 453 347 468 c 1
 294 447 244 423 191 402 c 1
 127 410 l 1
 36 409 l 1
 34 434 31 460 27 485 c 0
 17 549 2 613 -2 678 c 0
 -3 690 -3 703 -3 715 c 0
 -3 744 -1 772 4 800 c 1
 133 798 l 1
 202 853 267 915 341 966 c 1
EndSplineSet
Validated: 1
EndChar

StartChar: six
Encoding: 54 54 9
Width: 554
VWidth: 1024
Flags: W
HStem: 448 20G<173.5 390.5> 795 21G<336 486> 807 34<400.833 440.224>
VStem: -16 147<171.877 420.793> 378 147<103.188 430.574>
LayerCount: 2
Fore
SplineSet
296 447 m 1x98
 250 443 207 432 163 421 c 1
 149 423 l 1
 142 376 131 323 131 270 c 0
 131 252 132 234 135 217 c 0
 146 176 169 137 198 103 c 0
 225 73 263 52 303 35 c 0
 304 34 l 0
 322 45 333 63 345 83 c 0
 367 115 373 151 376 188 c 0
 378 219 378 249 378 280 c 0
 378 300 378 321 378 341 c 0
 378 344 378 347 378 350 c 0
 378 362 379 377 379 392 c 0
 379 408 377 422 368 431 c 0
 354 443 327 444 296 447 c 1x98
320 846 m 0
 349 846 365 845 394 844 c 2
 430 841 l 1
 448 829 467 817 486 807 c 1xb8
 340 795 l 1xd8
 332 800 323 805 315 810 c 1
 288 793 268 770 250 746 c 0
 207 682 185 608 166 523 c 0
 163 504 160 485 156 466 c 1
 163 467 170 467 177 468 c 0
 241 468 304 468 368 468 c 0
 413 468 463 468 502 448 c 0
 506 444 512 441 514 436 c 0
 524 414 525 388 525 363 c 0
 525 356 525 348 525 341 c 0
 525 322 526 304 526 285 c 0
 526 252 525 219 523 187 c 0
 520 149 514 111 492 77 c 0
 471 43 456 13 405 3 c 1
 368 3 331 1 294 1 c 0
 247 1 201 5 156 22 c 0
 116 41 78 63 51 96 c 0
 22 132 -2 172 -12 215 c 0
 -15 232 -16 250 -16 267 c 0
 -16 298 -12 328 -8 358 c 0
 0 414 10 470 19 525 c 0
 47 652 85 773 185 833 c 0
 191 835 197 841 204 841 c 0xb8
 237 843 279 846 320 846 c 0
EndSplineSet
Validated: 1
EndChar

StartChar: seven
Encoding: 55 55 10
Width: 673
VWidth: 1024
Flags: W
HStem: 873 122<43.1031 130.667> 973 24<194.594 459>
VStem: 459 147<815.622 973>
LayerCount: 2
Fore
SplineSet
268 973 m 0x60
 232 972 201 970 173 949 c 0
 146 927 133 906 123 873 c 1
 -24 880 l 1
 -14 911 2 938 26 961 c 0
 51 983 81 991 114 995 c 0xa0
 159 996 203 997 248 997 c 0x60
 378 997 473 995 604 995 c 0xa0
 607 993 606 992 606 990 c 0
 606 929 596 870 585 810 c 0
 563 695 578 764 548 639 c 0
 503 452 448 268 402 82 c 0
 382 6 366 -71 348 -148 c 1
 201 -145 l 1
 219 -68 235 9 255 86 c 0
 301 272 356 456 401 643 c 0
 431 770 415 695 437 813 c 0
 447 866 457 919 459 973 c 1
 416 973 374 973 331 973 c 0
 310 973 289 973 268 973 c 0x60
EndSplineSet
Validated: 1
EndChar

StartChar: eight
Encoding: 56 56 11
Width: 682
VWidth: 1024
Flags: W
HStem: -2 21G<291.5 335.5>
VStem: -20 137<82.0578 293.728> 244 138<658.211 861.203> 405 138<114.547 378.312> 511 137<567.949 816.666>
LayerCount: 2
Fore
SplineSet
340 517 m 1xf0
 304 486 271 451 237 418 c 0
 221 400 201 386 186 368 c 0
 173 352 163 334 152 317 c 0
 129 285 123 248 119 210 c 0
 118 194 117 178 117 162 c 0
 117 143 119 124 124 106 c 0
 136 77 160 59 186 43 c 0
 215 28 248 25 281 23 c 1
 313 26 335 38 358 58 c 0
 376 74 391 90 398 113 c 0
 403 146 404 179 404 212 c 0
 404 221 404 231 404 240 c 0
 405 251 405 261 405 272 c 0
 405 308 401 344 395 380 c 1
 331 385 l 1
 348 400 364 414 381 430 c 1
 370 461 357 492 340 517 c 1xf0
424 882 m 1
 411 880 398 875 390 862 c 0
 383 845 382 828 382 810 c 0
 382 804 382 798 382 792 c 0
 382 788 382 784 382 780 c 0
 382 757 382 734 386 711 c 0
 390 686 400 664 412 642 c 0
 428 604 449 568 471 534 c 1
 490 565 505 597 510 633 c 1
 510 656 511 678 511 700 c 0xe8
 511 727 510 754 504 779 c 0
 492 820 465 870 424 882 c 1
541 906 m 1
 571 900 593 878 609 854 c 0
 624 832 635 808 641 782 c 0
 647 753 648 723 648 691 c 0
 648 672 648 652 648 633 c 1xe8
 638 546 576 474 522 423 c 1
 536 379 543 322 543 269 c 0xf0
 543 259 542 249 542 240 c 0
 542 197 542 153 536 109 c 0
 529 81 516 65 495 46 c 0
 473 28 452 9 423 4 c 0
 388 -0 353 -2 318 -2 c 0
 265 -2 212 1 159 2 c 0
 121 5 82 9 49 30 c 0
 22 49 -2 71 -13 103 c 0
 -19 123 -20 143 -20 163 c 0
 -20 179 -19 195 -18 211 c 0
 -14 251 -8 290 14 325 c 0
 26 342 36 361 49 378 c 0
 64 397 84 411 100 429 c 0
 136 463 170 499 207 532 c 1
 338 521 l 1
 314 557 291 595 274 637 c 0
 260 659 252 683 248 709 c 0
 244 732 244 756 244 780 c 0
 244 785 244 791 244 796 c 0
 244 820 245 843 252 867 c 0
 264 894 289 901 317 905 c 0
 348 907 380 908 412 908 c 0
 455 908 498 907 541 906 c 1
EndSplineSet
Validated: 1
EndChar

StartChar: nine
Encoding: 57 57 12
Width: 680
VWidth: 1024
Flags: W
HStem: 25 100<187.624 232.333> 641 20G<399.5 423> 914 20G<330 486>
VStem: 5 129<544.699 677.153> 521 129<122.839 439.736>
LayerCount: 2
Fore
SplineSet
370 836 m 1
 352 823 333 810 315 798 c 0
 261 759 202 727 154 678 c 0
 140 660 134 638 134 615 c 0
 134 609 134 604 135 598 c 0
 140 565 157 540 176 515 c 1
 201 490 231 471 263 457 c 0
 268 455 274 453 280 451 c 0
 325 470 354 515 373 560 c 0
 387 592 395 626 404 661 c 1
 423 660 l 2
 422 661 422 662 422 663 c 0
 402 720 384 774 370 836 c 1
358 934 m 1
 486 917 l 2
 483 915 480 913 477 911 c 2
 484 911 l 1
 492 871 500 831 511 792 c 0
 522 750 536 709 551 669 c 0
 563 627 576 588 594 549 c 0
 612 514 618 475 630 438 c 0
 649 384 650 323 650 254 c 0
 650 238 650 223 650 207 c 0
 650 191 650 176 649 160 c 0
 642 122 618 98 591 78 c 0
 559 56 521 48 485 38 c 0
 434 26 383 24 332 24 c 0
 300 24 269 25 237 25 c 1
 208 29 190 42 170 64 c 0
 155 82 144 104 132 125 c 1
 261 134 l 1
 272 114 283 93 298 76 c 0
 309 66 321 58 334 54 c 1
 343 55 351 56 357 58 c 0
 393 67 430 75 463 93 c 0
 488 109 512 128 520 162 c 1
 521 177 521 192 521 208 c 0
 521 223 521 238 521 254 c 0
 521 322 519 380 501 433 c 0
 494 458 488 483 480 507 c 1
 467 486 452 468 432 450 c 0
 421 440 418 437 405 430 c 0
 379 418 351 414 323 414 c 0
 286 414 249 420 214 420 c 0
 187 422 160 427 135 440 c 0
 103 456 71 476 47 505 c 0
 28 532 11 561 6 596 c 0
 5 602 5 609 5 615 c 0
 5 642 12 667 26 690 c 1
 72 742 133 773 187 813 c 0
 244 852 302 891 358 934 c 1
EndSplineSet
Validated: 1
EndChar

StartChar: colon
Encoding: 58 58 13
Width: 250
VWidth: 1024
Flags: W
HStem: 22 160<19.1161 146> 492 159<18.9556 146>
VStem: -1 170
LayerCount: 2
Fore
SplineSet
-1 182 m 1
 146 182 l 1
 159 93 l 2
 162 69 166 46 169 22 c 1
 22 22 l 1
 19 46 15 69 12 93 c 2
 -1 182 l 1
-1 651 m 1
 146 651 l 1
 159 562 l 2
 162 539 166 515 169 492 c 1
 22 492 l 1
 19 515 15 539 12 562 c 2
 -1 651 l 1
EndSplineSet
Validated: 1
EndChar

StartChar: semicolon
Encoding: 59 59 14
Width: 250
VWidth: 1024
Flags: W
HStem: 492 159<18.9556 146>
VStem: 55 147<-53.1275 128.859>
LayerCount: 2
Fore
SplineSet
22 196 m 1
 169 196 l 1
 172 157 183 119 195 82 c 0
 200 62 202 43 202 24 c 0
 202 2 198 -20 189 -44 c 0
 178 -73 155 -92 131 -111 c 2
 118 -120 l 1
 -28 -105 l 2
 -24 -103 -20 -100 -16 -97 c 0
 6 -80 31 -65 42 -38 c 0
 51 -18 55 3 55 24 c 0
 55 42 53 59 48 77 c 0
 36 116 25 155 22 196 c 1
-1 651 m 1
 146 651 l 1
 159 562 l 2
 162 539 166 515 169 492 c 1
 22 492 l 1
 19 515 15 539 12 562 c 2
 -1 651 l 1
EndSplineSet
Validated: 1
EndChar

StartChar: A
Encoding: 65 65 15
Width: 715
VWidth: 1024
Flags: W
HStem: 13 21G<-33 123.6> 1048 20G<302 467>
VStem: 351 147<517.247 704>
LayerCount: 2
Fore
SplineSet
350 704 m 5
 314 571 276 440 234 309 c 1
 321 336 340 342 403 374 c 1
 377 475 359 578 351 682 c 0
 350 689 350 696 350 704 c 5
320 1068 m 1
 467 1062 l 1
 448 1013 431 963 415 913 c 1
 495 913 l 1
 495 836 495 759 498 682 c 0
 506 585 522 488 545 393 c 1
 608 386 l 1
 590 378 572 369 554 360 c 1
 578 267 599 212 629 126 c 0
 663 33 711 -53 767 -133 c 0
 776 -145 813 -193 824 -206 c 1
 677 -216 l 1
 597 -113 526 -3 483 121 c 0
 456 197 443 227 421 304 c 1
 343 278 288 261 211 242 c 1
 186 172 157 105 126 38 c 1
 114 13 l 1
 -33 20 l 1
 -21 44 l 1
 3 97 28 149 48 205 c 1
 34 202 19 199 4 196 c 1
 -142 216 l 1
 -72 231 -1 245 68 262 c 1
 75 281 82 301 89 321 c 0
 140 473 181 628 223 782 c 1
 255 878 284 974 320 1068 c 1
EndSplineSet
Validated: 1
EndChar

StartChar: B
Encoding: 66 66 16
Width: 721
VWidth: 1024
Flags: W
HStem: 499 20G<452 478> 962 54<104 168.923> 1044 20G<-42.5 105 176.5 209.5>
VStem: -42 146<681.171 924 1016 1064> 237 147<679.484 912.545> 531 147<165.208 352.918>
LayerCount: 2
Fore
SplineSet
104 962 m 1
 105 876 110 791 122 706 c 0
 128 662 137 617 146 575 c 1
 176 617 213 661 228 712 c 0
 236 743 237 770 237 800 c 0
 237 806 237 813 237 819 c 0
 236 850 237 883 226 914 c 0
 214 941 195 964 170 979 c 1
 147 973 126 968 104 962 c 1
-152 937 m 1
 -117 954 -80 968 -43 980 c 1
 -43 1008 -43 1036 -42 1064 c 1
 105 1064 l 1
 104 1048 104 1032 104 1016 c 1
 133 1021 162 1024 191 1024 c 0
 228 1024 264 1019 299 1006 c 1
 335 985 359 958 373 919 c 0
 383 887 383 853 384 819 c 0
 384 812 384 804 384 797 c 0
 384 767 382 738 375 709 c 0
 363 665 337 628 311 591 c 0
 293 566 275 541 255 518 c 1
 262 518 272 517 280 517 c 0
 299 512 319 510 339 510 c 0
 384 510 429 519 475 519 c 0
 481 519 488 518 495 518 c 0
 507 517 510 515 522 511 c 0
 554 491 583 466 608 438 c 0
 627 413 642 387 657 360 c 0
 669 335 674 308 676 282 c 0
 677 265 678 248 678 231 c 0
 678 218 677 205 675 193 c 0
 664 155 632 130 605 104 c 0
 570 73 536 41 500 11 c 0
 460 -23 411 -44 364 -65 c 0
 315 -85 264 -98 217 -120 c 0
 184 -136 152 -152 120 -168 c 0
 96 -181 75 -198 55 -216 c 0
 37 -234 19 -253 -2 -268 c 1
 -148 -252 l 1
 -126 -240 -108 -222 -91 -204 c 0
 -71 -185 -51 -166 -26 -152 c 0
 6 -136 38 -120 70 -103 c 0
 117 -79 168 -66 218 -48 c 0
 265 -28 313 -8 353 24 c 0
 390 53 423 86 458 117 c 0
 484 140 515 162 528 196 c 0
 530 206 531 217 531 227 c 0
 531 245 529 262 529 280 c 0
 527 305 522 330 510 352 c 0
 496 378 481 404 461 427 c 0
 436 452 412 478 378 491 c 1
 363 493 l 1
 320 489 l 1
 301 488 l 1
 275 486 259 486 235 473 c 0
 232 471 205 454 203 454 c 0
 192 453 182 453 172 453 c 1
 205 303 244 155 281 6 c 1
 134 3 l 1
 85 198 33 393 -5 591 c 0
 -12 629 -20 666 -25 704 c 0
 -35 777 -40 851 -42 924 c 1
 -152 937 l 1
EndSplineSet
Validated: 1
EndChar

StartChar: C
Encoding: 67 67 17
Width: 712
VWidth: 1024
Flags: W
HStem: 890 21G<305.5 459> 1026 20G<238 336>
VStem: 3 147<-2.35937 507.903> 15 147<-38.1604 100.313 234.391 734.044>
LayerCount: 2
Fore
SplineSet
311 1046 m 1xe0
 361 1031 427 940 459 900 c 1
 313 890 l 1
 298 906 271 944 243 975 c 1
 226 942 218 906 209 870 c 0
 186 763 169 655 159 546 c 0
 152 430 151 313 151 196 c 0
 151 188 151 181 151 173 c 0
 151 150 150 126 150 102 c 0xe0
 150 66 152 31 162 -4 c 0
 173 -29 190 -48 211 -63 c 1
 232 -54 248 -43 276 -27 c 0
 374 33 466 103 558 170 c 1
 705 157 l 1
 612 89 520 19 422 -42 c 0
 404 -53 387 -65 369 -74 c 0
 320 -101 260 -117 202 -117 c 0
 162 -117 123 -109 88 -92 c 1
 55 -72 29 -45 15 -8 c 1xd0
 5 30 3 69 3 109 c 0
 3 133 4 157 4 181 c 0
 4 186 4 191 4 196 c 0
 4 313 5 430 12 547 c 0
 22 657 39 765 62 873 c 0
 74 924 86 983 122 1024 c 0
 128 1030 134 1040 143 1041 c 0
 175 1045 206 1045 238 1045 c 0
 311 1046 l 1xe0
EndSplineSet
Validated: 1
EndChar

StartChar: D
Encoding: 68 68 18
Width: 715
VWidth: 1024
Flags: W
HStem: 886 27<253.866 386.424> 927 20G<-14 133>
VStem: 529 147<381.684 726.701>
LayerCount: 2
Fore
SplineSet
137 845 m 1
 143 771 153 697 162 622 c 0
 189 409 252 186 326 0 c 1
 394 109 456 223 497 346 c 0
 503 368 510 390 515 412 c 0
 525 458 529 504 529 550 c 0
 529 585 526 621 522 656 c 0
 513 720 496 783 447 830 c 0
 419 855 387 877 350 886 c 0
 350 886 350 886 349 886 c 0
 277 879 202 864 137 845 c 1
-14 947 m 1
 133 947 l 1
 133 931 134 914 134 898 c 1
 166 903 197 907 228 910 c 0
 262 912 296 913 330 913 c 0
 379 913 427 912 476 911 c 1
 523 903 560 874 594 842 c 0
 642 791 659 726 670 658 c 0
 674 623 676 588 676 553 c 0
 676 505 672 457 662 410 c 0
 657 387 650 365 644 342 c 0
 597 196 519 64 436 -64 c 0
 391 -131 344 -198 286 -254 c 0
 247 -291 201 -316 151 -316 c 0
 117 -316 82 -305 45 -280 c 0
 16 -257 -10 -230 -37 -206 c 1
 110 -194 l 1
 123 -206 137 -219 150 -232 c 1
 218 -165 272 -85 323 -3 c 1
 180 -8 l 1
 106 180 43 405 15 621 c 0
 7 682 -1 744 -7 806 c 1
 -141 822 l 1
 -98 837 -55 850 -11 863 c 1
 -13 891 -14 919 -14 947 c 1
EndSplineSet
Validated: 1
EndChar

StartChar: E
Encoding: 69 69 19
Width: 829
VWidth: 1024
Flags: W
HStem: -277 31<207.303 502.935> 431 20G<338 502.048> 676 21G<596.5 760> 851 26<-108.567 -29.0521> 902 20G<8 155>
VStem: 8 147<52.2046 196 288.571 304.428 387 812 872 922>
LayerCount: 2
Fore
SplineSet
8 922 m 1
 155 922 l 1
 155 861 l 1
 184 858 213 854 242 851 c 0
 351 834 396 821 506 814 c 0
 560 807 615 798 663 772 c 0
 702 750 733 717 760 684 c 1
 599 676 l 1
 594 696 548 716 519 746 c 1
 470 769 416 777 363 783 c 0
 272 789 245 800 155 812 c 1
 155 631 l 1
 155 597 156 564 156 530 c 0
 156 482 155 434 154 387 c 1
 181 400 209 411 237 420 c 0
 286 436 313 440 363 451 c 1
 509 430 l 1
 462 421 428 416 383 403 c 0
 327 386 275 359 223 333 c 0
 199 319 176 304 153 289 c 1
 151 216 150 143 150 70 c 0
 150 55 150 41 150 26 c 0
 150 -55 155 -135 170 -216 c 1
 204 -233 242 -241 290 -248 c 0
 296 -249 302 -249 308 -248 c 0
 318 -247 327 -246 337 -246 c 0
 386 -246 l 0
 483 -237 577 -219 671 -198 c 0
 750 -178 829 -157 906 -129 c 0
 937 -118 964 -108 992 -90 c 0
 1001 -84 1009 -77 1017 -70 c 0
 1023 -63 1028 -56 1034 -49 c 1
 1180 -58 l 1
 1175 -66 1169 -74 1164 -83 c 0
 1155 -90 1147 -99 1138 -105 c 0
 1110 -125 1085 -135 1052 -147 c 0
 975 -176 896 -197 817 -218 c 0
 732 -237 713 -244 626 -256 c 0
 531 -270 434 -277 336 -277 c 0
 272 -277 208 -274 145 -269 c 0
 108 -262 75 -255 45 -241 c 0
 38 -240 30 -235 25 -225 c 0
 6 -133 2 -44 2 50 c 0
 2 97 3 146 4 196 c 1
 -99 203 l 1
 -70 242 -34 274 6 302 c 1
 7 380 9 457 9 535 c 0
 9 567 9 599 8 631 c 1
 8 831 l 1
 1 832 -85 850 -92 851 c 0
 -111 857 -127 868 -128 877 c 1
 -120 877 1 872 8 872 c 1
 8 922 l 1
EndSplineSet
Validated: 1
EndChar

StartChar: F
Encoding: 70 70 20
Width: 733
VWidth: 1024
Flags: W
HStem: 641 20G<339 503.048> 886 21G<597.5 762> 1061 26<-106.892 -27.8427>
VStem: 10 146<-10.061 406 498.571 514.428 597 1022 1082 1132>
LayerCount: 2
Fore
SplineSet
5 406 m 1
 -98 413 l 1
 -69 452 -32 484 7 512 c 1
 9 602 10 691 10 781 c 0
 10 801 10 821 10 841 c 1
 10 1041 l 1
 2 1042 -84 1060 -91 1061 c 0
 -109 1067 -125 1078 -126 1087 c 1
 -119 1087 2 1082 10 1082 c 1
 10 1132 l 1
 156 1132 l 1
 156 1071 l 1
 185 1068 214 1064 243 1061 c 0
 352 1044 398 1031 508 1024 c 0
 561 1017 617 1008 665 982 c 0
 704 960 734 927 762 894 c 1
 600 886 l 1
 595 906 549 926 520 956 c 1
 471 979 417 987 364 993 c 0
 273 999 247 1010 156 1022 c 1
 156 841 l 1
 157 807 157 772 157 738 c 0
 157 691 157 644 156 597 c 1
 182 610 210 621 238 630 c 0
 287 646 314 650 364 661 c 1
 510 640 l 1
 464 631 429 626 384 613 c 0
 328 596 276 569 224 543 c 0
 201 529 177 514 154 499 c 1
 153 426 151 353 151 280 c 0
 151 267 151 254 151 241 c 0
 151 156 157 70 173 -14 c 1
 26 -15 l 1
 7 80 4 171 4 269 c 0
 4 313 4 359 5 406 c 1
EndSplineSet
Validated: 1
EndChar

StartChar: G
Encoding: 71 71 21
Width: 790
VWidth: 1024
Flags: W
HStem: -74 42<283.094 331.745> 540 20G<505.5 542> 910 26<359.875 447.681>
VStem: -39 147<225.676 643.939> 555 147<-337 -189.155>
LayerCount: 2
Fore
SplineSet
522 -1 m 1
 494 -19 465 -35 435 -50 c 0
 385 -69 358 -74 322 -74 c 0
 292 -74 257 -71 197 -69 c 0
 173 -68 149 -55 130 -44 c 0
 67 8 32 77 4 152 c 0
 -2 171 -9 190 -14 209 c 0
 -32 280 -39 353 -39 426 c 0
 -39 467 -37 507 -33 548 c 0
 -23 637 -9 728 42 804 c 0
 49 813 55 823 62 831 c 0
 98 873 150 900 200 922 c 1
 245 937 277 941 314 941 c 0
 345 941 379 938 427 936 c 0
 444 935 460 922 471 910 c 1
 344 902 l 1
 295 883 245 858 209 820 c 0
 145 750 125 643 114 546 c 0
 110 506 108 466 108 426 c 0
 108 354 115 282 133 212 c 0
 138 193 145 175 151 156 c 0
 176 95 204 29 256 -16 c 0
 264 -23 273 -29 283 -34 c 0
 285 -33 287 -32 289 -32 c 0
 373 5 451 61 516 122 c 1
 513 216 511 310 496 402 c 0
 491 428 488 453 479 478 c 1
 460 465 442 452 425 437 c 1
 279 449 l 1
 317 484 362 512 408 536 c 1
 440 548 485 560 526 560 c 0
 558 560 588 552 605 529 c 0
 631 495 636 445 643 405 c 0
 651 354 655 302 658 250 c 1
 758 246 l 1
 737 194 704 150 664 111 c 1
 666 51 670 -21 674 -81 c 0
 677 -167 684 -253 702 -337 c 1
 555 -340 l 1
 531 -228 529 -121 522 -1 c 1
EndSplineSet
Validated: 1
EndChar

StartChar: H
Encoding: 72 72 22
Width: 754
VWidth: 1024
Flags: W
HStem: 536 20G<575.5 725.048> 931 20G<-44 104 367 517.5>
VStem: -47 147<478.522 946> 376 146<68.353 476 547 932.812>
LayerCount: 2
Fore
SplineSet
376 524 m 1
 376 557 376 590 376 624 c 0
 375 732 376 840 367 948 c 1
 514 951 l 1
 521 862 522 773 522 683 c 0
 522 664 522 644 522 624 c 0
 523 598 523 573 524 547 c 1
 544 550 565 553 586 556 c 1
 732 535 l 1
 662 526 593 516 524 504 c 1
 524 453 523 402 523 350 c 0
 523 258 525 166 534 74 c 0
 538 41 544 8 548 -25 c 0
 571 -141 593 -261 651 -366 c 1
 504 -373 l 1
 447 -266 423 -145 401 -27 c 0
 396 6 391 40 387 73 c 0
 377 175 376 279 376 381 c 0
 376 413 376 444 376 476 c 1
 292 459 208 439 127 412 c 1
 134 334 142 257 153 180 c 1
 160 142 l 1
 13 139 l 1
 6 178 l 1
 -3 242 -10 306 -16 370 c 1
 -131 382 l 1
 -95 400 -59 415 -22 428 c 1
 -27 493 -32 558 -37 622 c 0
 -43 747 -39 668 -44 784 c 0
 -44 805 -47 867 -47 892 c 0
 -47 912 -45 928 -43 948 c 1
 104 946 l 1
 102 927 100 911 100 892 c 0
 100 868 103 804 104 784 c 0
 107 697 109 633 122 471 c 1
 206 492 289 509 376 524 c 1
EndSplineSet
Validated: 1
EndChar

StartChar: I
Encoding: 73 73 23
Width: 214
VWidth: 1024
Flags: W
HStem: 18 21G<13.5 187> 755 20G<-19 150>
VStem: -19 169<171.949 775> 18 169<20 188.47>
LayerCount: 2
Fore
SplineSet
150 775 m 1xe0
 150 698 150 622 150 545 c 0
 150 531 150 516 150 502 c 0xe0
 150 373 158 246 173 118 c 0
 182 49 178 82 187 20 c 1
 18 18 l 1xd0
 9 80 13 47 4 116 c 0
 -11 245 -19 373 -19 502 c 0
 -19 516 -19 531 -19 545 c 0
 -19 622 -19 698 -19 775 c 1
 150 775 l 1xe0
EndSplineSet
Validated: 1
EndChar

StartChar: J
Encoding: 74 74 24
Width: 718
VWidth: 1024
Flags: W
HStem: 966 20G<429 592.5>
VStem: 4 147<118.68 196> 515 147<135.884 643.816>
LayerCount: 2
Fore
SplineSet
576 986 m 1
 609 901 620 809 632 719 c 0
 648 596 656 471 660 346 c 0
 661 320 662 295 662 269 c 0
 662 233 660 198 651 163 c 0
 648 153 645 143 642 134 c 0
 619 64 558 26 498 -9 c 1
 443 -37 388 -69 327 -81 c 1
 271 -79 215 -81 159 -76 c 0
 150 -75 143 -68 136 -63 c 0
 95 -33 72 12 49 55 c 0
 27 100 14 148 4 196 c 1
 151 199 l 1
 161 152 174 106 196 62 c 0
 215 27 234 -9 265 -35 c 1
 295 -22 324 -9 352 6 c 0
 409 39 471 72 495 139 c 0
 498 147 502 156 504 165 c 0
 513 199 515 233 515 268 c 0
 515 294 513 320 513 346 c 0
 509 470 501 594 485 717 c 0
 473 806 462 896 429 980 c 1
 576 986 l 1
EndSplineSet
Validated: 1
EndChar

StartChar: K
Encoding: 75 75 25
Width: 725
VWidth: 1024
Flags: W
HStem: -268 32<1169.95 1313.69> 252 11<15.47 39.9531> 934 20G<-17 130 489.5 648>
VStem: -17 147<667.069 954> 50 148<1 242.249>
LayerCount: 2
Fore
SplineSet
188 246 m 1xf0
 192 166 196 84 198 1 c 1
 50 1 l 1xe8
 49 84 46 166 41 246 c 1
 0 252 l 1
 26 259 14 255 37 263 c 0
 38 263 39 264 40 264 c 0
 32 394 22 524 6 653 c 0
 -6 753 -17 854 -17 954 c 1
 130 954 l 1
 130 854 141 754 153 655 c 0
 164 565 173 475 179 385 c 1
 198 410 214 436 231 462 c 1
 212 504 195 546 187 591 c 1
 310 591 l 1
 354 671 396 753 436 835 c 0
 458 880 478 925 501 969 c 1
 648 962 l 1
 625 918 605 873 583 828 c 0
 521 702 456 576 382 460 c 1
 425 369 473 284 528 201 c 0
 585 122 641 43 710 -26 c 0
 724 -40 740 -54 754 -67 c 0
 808 -111 862 -155 925 -184 c 0
 992 -216 1081 -234 1170 -241 c 1
 1169 -240 1169 -239 1169 -239 c 0
 1169 -236 1177 -235 1188 -235 c 0
 1199 -235 1212 -236 1224 -236 c 0
 1229 -236 1234 -236 1238 -235 c 0
 1299 -226 1358 -210 1416 -192 c 1
 1562 -210 l 1
 1504 -229 1445 -246 1384 -256 c 0
 1307 -266 1298 -268 1258 -268 c 0
 1231 -268 1191 -267 1106 -267 c 0
 991 -266 863 -243 779 -200 c 0
 716 -169 661 -124 607 -79 c 0
 593 -65 577 -52 563 -37 c 0
 495 33 438 113 382 192 c 0
 351 239 321 287 294 336 c 1
 265 301 232 263 188 246 c 1xf0
EndSplineSet
Validated: 1
EndChar

StartChar: L
Encoding: 76 76 26
Width: 973
VWidth: 1024
Flags: W
HStem: -122 94<179.349 225.756> -71 46<236.185 677.872> 832 20G<-89 58>
VStem: -89 147<632.69 852>
LayerCount: 2
Fore
SplineSet
-89 852 m 5xb0
 58 852 l 5
 58 849 58 846 58 844 c 4
 58 776 69 709 78 643 c 4
 94 533 111 424 127 314 c 4
 144 195 169 98 179 -28 c 5xb0
 207 -25 236 -26 264 -25 c 4
 363 -23 462 -23 561 -23 c 4
 575 -22 622 -18 647 -13 c 4
 664 -9 670 -6 686 0 c 4
 724 17 742 21 761 57 c 4
 771 77 775 99 779 121 c 5
 926 118 l 5
 922 95 918 72 908 50 c 4
 888 11 872 -19 832 -41 c 4
 824 -44 800 -56 792 -58 c 4
 785 -60 778 -60 771 -61 c 4
 718 -70 667 -74 614 -74 c 4
 588 -74 561 -73 534 -71 c 5
 533 -71 l 6
 491 -71 450 -71 409 -71 c 4x70
 355 -72 298 -71 246 -88 c 4
 235 -93 232 -94 223 -103 c 4
 223 -103 208 -122 206 -122 c 4
 118 -130 94 -141 78 -141 c 4
 68 -141 62 -136 42 -120 c 5
 34 -103 34 -88 33 -70 c 4
 31 -39 28 -9 24 22 c 4
 -5 228 -40 434 -69 641 c 4
 -78 708 -89 775 -89 844 c 4
 -89 846 -89 849 -89 852 c 5xb0
EndSplineSet
Validated: 1
EndChar

StartChar: M
Encoding: 77 77 27
Width: 991
VWidth: 1024
Flags: W
HStem: 768 20G<129 222> 1126 14<726.094 738.908>
VStem: 39 146<342.991 618> 796 147<-327 17.2427>
LayerCount: 2
Fore
SplineSet
726 1120 m 1
 730 1121 735 1121 739 1122 c 0
 741 1122 736 1126 733 1126 c 0
 730 1126 728 1123 726 1120 c 1
593 1142 m 0
 623 1139 647 1139 665 1139 c 0
 692 1139 709 1140 721 1140 c 0
 745 1140 745 1133 762 1090 c 0
 798 990 837 890 863 786 c 0
 908 601 927 390 936 190 c 0
 942 32 943 -126 943 -284 c 0
 943 -298 943 -313 943 -327 c 1
 796 -327 l 1
 796 -313 796 -298 796 -284 c 0
 796 101 795 461 716 782 c 0
 701 842 681 901 660 959 c 1
 647 914 636 869 625 824 c 0
 591 665 555 507 518 349 c 1
 536 317 554 283 570 249 c 1
 423 242 l 1
 415 258 407 274 399 290 c 1
 356 291 l 1
 360 309 365 327 369 345 c 1
 354 371 338 396 322 420 c 0
 276 486 232 553 184 618 c 1
 184 592 l 1
 185 577 185 562 185 548 c 0
 185 476 177 404 163 333 c 1
 145 269 128 204 106 140 c 0
 101 122 91 107 78 92 c 1
 -68 103 l 1
 -54 115 -46 128 -41 145 c 0
 -19 208 -2 272 16 336 c 1
 31 408 39 482 39 556 c 0
 39 568 38 580 38 592 c 1
 38 783 l 1
 129 783 l 1
 202 788 l 1
 242 738 283 689 322 639 c 0
 352 599 381 558 409 516 c 1
 434 619 455 723 478 827 c 0
 498 911 519 996 553 1076 c 0
 557 1083 584 1142 593 1142 c 0
EndSplineSet
Validated: 1
EndChar

StartChar: N
Encoding: 78 78 28
Width: 853
VWidth: 1024
Flags: W
HStem: 1030 20G<12 208.5 616 763>
VStem: 5 147<180.5 674> 610 147<241 968.265 971.265 1050> 616 147<241 671.313 675.86 1050>
LayerCount: 2
Fore
SplineSet
616 1050 m 1xd0
 763 1050 l 1xd0
 763 1023 764 997 764 970 c 0
 764 933 763 895 762 857 c 0
 758 796 757 734 757 673 c 0xe0
 757 637 757 602 758 566 c 0
 762 417 763 268 763 116 c 0
 763 111 762 105 762 100 c 0
 762 73 766 48 773 22 c 0
 782 -4 778 9 787 -17 c 1
 786 -17 l 1
 811 -46 839 -72 872 -93 c 1
 888 -101 l 1
 742 -117 l 1
 725 -108 l 1
 642 -48 585 40 531 129 c 0
 484 204 443 283 393 356 c 0
 320 467 241 574 154 674 c 1
 153 590 153 507 152 423 c 0
 152 411 152 399 152 387 c 0
 152 350 152 312 152 275 c 0
 152 248 152 220 151 193 c 1
 148 168 l 1
 1 170 l 1
 4 194 l 1
 5 221 6 247 6 274 c 0
 6 315 5 355 5 396 c 0
 5 405 5 414 5 423 c 0
 5 517 5 611 7 704 c 0
 8 763 8 822 16 880 c 1
 162 877 l 1
 160 855 158 833 157 811 c 1
 190 813 l 1
 227 762 272 719 312 671 c 0
 396 575 470 471 540 364 c 0
 567 324 592 283 616 241 c 1xd0
 615 350 614 458 612 566 c 0
 611 606 610 647 610 687 c 0xe0
 610 744 611 801 615 858 c 0
 616 890 616 922 616 954 c 0
 616 986 616 1018 616 1050 c 1xd0
EndSplineSet
Validated: 1
EndChar

StartChar: O
Encoding: 79 79 29
Width: 976
VWidth: 1024
Flags: W
HStem: 686 21G<-179 -28> 758 27<257.046 529.88> 856 20G<134 286>
VStem: -61 147<262.661 580.896> 789 147<230.549 548.693>
LayerCount: 2
Fore
SplineSet
286 865 m 1
 259 834 226 810 201 777 c 1
 254 782 307 785 360 785 c 0
 387 785 414 785 441 783 c 0
 527 781 614 780 698 760 c 0
 742 747 786 731 820 698 c 0
 845 673 865 644 884 615 c 0
 907 574 928 531 933 483 c 0
 935 463 936 442 936 421 c 0
 936 387 934 352 932 318 c 0
 925 253 909 186 866 140 c 0
 828 99 775 78 722 64 c 0
 702 61 666 53 646 52 c 0
 607 51 568 50 529 50 c 0
 384 50 244 61 133 104 c 1
 84 127 41 157 4 196 c 0
 -22 226 -47 258 -56 298 c 0
 -60 320 -61 341 -61 362 c 0
 -61 380 -60 399 -60 417 c 0
 -59 463 -58 509 -48 554 c 0
 -36 603 -20 651 1 695 c 1
 -10 692 -22 689 -34 686 c 1
 -179 705 l 1
 -112 723 -40 740 32 753 c 1
 50 782 70 810 94 833 c 0
 109 847 128 858 140 876 c 1
 286 865 l 1
297 761 m 1
 296 761 296 761 295 761 c 1
 296 761 296 761 297 761 c 1
329 754 m 0
 276 747 223 741 171 732 c 1
 141 678 115 615 99 551 c 0
 89 507 88 462 87 417 c 0
 87 399 86 381 86 363 c 0
 86 342 87 321 91 301 c 0
 101 264 126 235 151 207 c 0
 189 169 230 142 279 120 c 1
 357 94 437 83 525 77 c 1
 615 86 683 110 735 170 c 0
 770 213 779 267 785 320 c 0
 787 354 789 387 789 421 c 0
 789 441 788 462 786 482 c 0
 781 527 760 568 737 607 c 0
 718 635 698 663 674 686 c 0
 606 743 499 754 388 758 c 1
 368 758 349 757 329 754 c 0
EndSplineSet
Validated: 1
EndChar

StartChar: P
Encoding: 80 80 30
Width: 739
VWidth: 1024
Flags: W
HStem: 978 32<164.957 398.692>
VStem: 180 140<-129 19.375> 501 198<683.604 872.352>
LayerCount: 2
Fore
SplineSet
335 978 m 0
 282 977 229 975 178 966 c 0
 159 961 142 954 126 947 c 1
 129 930 133 913 136 896 c 0
 168 724 194 566 226 397 c 1
 245 412 264 428 282 444 c 0
 358 513 435 586 478 680 c 0
 493 717 501 745 501 775 c 0
 501 797 497 820 489 849 c 1
 466 912 422 975 335 978 c 0
98 1106 m 1
 103 1082 104 1058 108 1035 c 0
 110 1025 112 1016 114 1007 c 1
 186 1009 259 1010 332 1010 c 0
 392 1010 451 1009 510 1009 c 0
 610 1008 663 928 687 855 c 1
 695 825 699 800 699 776 c 0
 699 743 692 712 676 673 c 0
 634 576 556 500 479 429 c 0
 418 373 352 324 281 281 c 1
 248 285 l 1
 256 240 265 196 273 152 c 0
 292 59 312 -32 320 -129 c 1
 180 -130 l 1
 179 -111 l 1
 168 -24 151 63 133 149 c 0
 124 199 114 249 105 299 c 1
 84 301 l 1
 90 305 96 308 102 312 c 1
 77 446 51 579 28 713 c 0
 19 762 -0 875 -10 922 c 1
 -129 933 l 1
 -96 955 -61 975 -23 988 c 1
 -26 1003 -29 1018 -32 1033 c 0
 -36 1056 -37 1080 -42 1103 c 1
 98 1106 l 1
EndSplineSet
Validated: 1
EndChar

StartChar: Q
Encoding: 81 81 31
Width: 979
VWidth: 1024
Flags: W
HStem: -142 42<1001 1046.76> 686 21G<-179 -27.5> 758 28<248.406 533.507> 856 20G<134 286>
VStem: -61 147<262.661 580.958> 789 147<230.212 548.693>
LayerCount: 2
Fore
SplineSet
329 754 m 0
 276 749 223 741 171 732 c 1
 141 679 115 615 99 551 c 0
 89 507 88 462 87 417 c 0
 87 399 86 381 86 363 c 0
 86 342 87 321 91 301 c 0
 101 264 126 235 151 206 c 0
 189 169 230 142 279 120 c 1
 357 94 437 83 525 77 c 0
 541 79 555 81 570 84 c 1
 559 96 547 107 534 118 c 0
 504 145 474 173 442 197 c 1
 589 209 l 1
 623 186 654 154 685 127 c 1
 703 139 720 153 735 170 c 0
 770 213 779 266 785 320 c 0
 787 354 789 387 789 421 c 0
 789 441 788 462 786 482 c 0
 781 527 760 568 737 607 c 0
 718 635 699 663 674 686 c 0
 607 743 499 754 388 758 c 1
 366 758 348 756 329 754 c 0
140 876 m 1
 286 865 l 1
 259 834 226 810 202 778 c 1
 257 783 312 786 367 786 c 0
 392 786 416 785 441 784 c 0
 527 782 614 780 698 760 c 0
 742 747 786 731 820 698 c 0
 845 673 865 644 884 614 c 0
 907 574 928 531 933 484 c 0
 935 463 936 442 936 421 c 0
 936 387 934 352 932 318 c 0
 925 253 909 185 866 140 c 0
 832 104 786 83 739 69 c 1
 752 52 764 35 776 17 c 0
 797 -20 828 -47 863 -70 c 0
 880 -81 897 -89 915 -96 c 0
 918 -94 919 -93 928 -86 c 1
 1074 -100 l 1
 1059 -112 1067 -106 1051 -119 c 0
 1021 -136 988 -142 954 -142 c 0
 906 -142 856 -131 810 -127 c 1
 776 -119 746 -103 717 -84 c 0
 682 -59 651 -29 630 8 c 0
 619 23 609 37 598 51 c 1
 571 50 545 50 518 50 c 0
 376 50 243 61 133 104 c 1
 84 127 41 157 4 196 c 0
 -22 226 -47 258 -56 298 c 0
 -60 320 -61 341 -61 362 c 0
 -61 381 -60 399 -60 417 c 0
 -59 463 -58 509 -48 554 c 0
 -36 603 -20 651 2 695 c 1
 -10 692 -22 689 -33 686 c 1
 -179 706 l 1
 -112 723 -39 740 33 753 c 1
 50 782 70 810 94 833 c 0
 109 847 128 858 140 876 c 1
EndSplineSet
Validated: 1
EndChar

StartChar: R
Encoding: 82 82 32
Width: 928
VWidth: 1024
Flags: W
HStem: -156 22<1151.42 1288> 438 20G<466 526> 1012 32<160.021 397.127>
VStem: 499 198<718.604 907.322>
LayerCount: 2
Fore
SplineSet
333 1012 m 0
 281 1012 228 1010 176 1001 c 0
 158 996 140 989 124 981 c 1
 163 795 190 616 225 432 c 1
 243 447 262 463 280 479 c 0
 356 548 433 621 476 715 c 0
 491 752 499 780 499 810 c 0
 499 832 495 855 487 884 c 1
 464 947 421 1009 333 1012 c 0
96 1140 m 1
 102 1117 102 1093 106 1069 c 0
 108 1060 110 1051 112 1041 c 1
 177 1044 243 1044 309 1044 c 0
 376 1044 442 1044 508 1043 c 0
 608 1042 660 963 685 890 c 1
 693 860 697 834 697 810 c 0
 697 778 689 747 674 708 c 0
 630 607 547 526 466 453 c 1
 507 458 l 1
 545 446 579 428 613 408 c 0
 663 382 691 345 723 300 c 0
 761 247 793 189 828 134 c 0
 864 77 908 27 954 -21 c 0
 985 -51 1019 -78 1059 -95 c 0
 1077 -104 1094 -109 1113 -115 c 0
 1170 -130 1229 -133 1288 -134 c 0
 1288 -133 1312 -132 1321 -131 c 0
 1331 -129 1340 -127 1349 -125 c 1
 1487 -143 l 1
 1438 -156 1389 -159 1339 -159 c 0
 1288 -159 1237 -156 1187 -156 c 0
 1184 -156 1180 -156 1177 -156 c 0
 1109 -154 1039 -152 974 -132 c 0
 910 -109 862 -80 815 -32 c 0
 768 18 724 69 688 126 c 0
 653 182 621 239 583 292 c 0
 552 336 524 368 474 394 c 0
 458 403 442 411 426 419 c 1
 380 381 331 347 279 316 c 1
 246 320 l 1
 254 275 263 231 271 187 c 0
 289 100 307 13 317 -75 c 1
 319 -94 l 1
 179 -96 l 1
 177 -77 l 1
 167 11 149 98 131 184 c 0
 122 234 112 284 103 334 c 1
 82 336 l 1
 88 339 94 343 100 347 c 1
 75 480 49 614 26 748 c 0
 18 797 -2 910 -12 957 c 1
 -131 968 l 1
 -98 990 -63 1009 -25 1023 c 1
 -28 1038 -31 1053 -34 1068 c 0
 -38 1091 -38 1115 -44 1138 c 1
 96 1140 l 1
EndSplineSet
Validated: 1
EndChar

StartChar: S
Encoding: 83 83 33
Width: 1131
VWidth: 1024
Flags: W
HStem: 668 21G<604 782> 884 20G<388 446.5>
VStem: -21 178<398.507 647.382> 604 179<668 802.719> 918 179<24.9523 84.0159>
LayerCount: 2
Fore
SplineSet
396 871 m 1
 351 865 353 863 312 847 c 1
 232 803 201 721 176 639 c 1
 167 595 157 542 157 493 c 0
 157 471 159 449 164 430 c 0
 167 420 173 410 177 401 c 0
 192 378 194 370 218 353 c 0
 237 340 273 326 294 317 c 0
 367 287 339 299 432 271 c 0
 617 222 806 189 990 136 c 0
 1014 125 1086 113 1096 80 c 0
 1097 77 1097 74 1097 71 c 0
 1097 61 1094 53 1092 44 c 0
 1072 8 1043 -37 1010 -61 c 0
 909 -133 778 -173 663 -216 c 0
 552 -255 438 -289 324 -321 c 1
 148 -298 l 1
 262 -266 375 -233 487 -195 c 0
 562 -167 666 -129 740 -95 c 0
 771 -81 803 -66 832 -47 c 0
 867 -24 890 16 914 49 c 0
 915 51 921 64 918 69 c 0
 906 89 831 105 813 113 c 0
 629 165 440 198 255 248 c 0
 192 268 94 295 40 339 c 0
 17 359 14 369 -1 394 c 0
 -5 405 -11 416 -14 428 c 0
 -19 450 -21 473 -21 496 c 0
 -21 546 -12 597 -2 644 c 1
 23 731 56 817 135 868 c 0
 149 874 161 882 175 887 c 0
 202 896 248 902 275 902 c 0
 321 903 366 904 410 904 c 0
 483 904 553 901 625 889 c 1
 685 874 752 853 775 789 c 1
 781 762 783 734 783 707 c 0
 783 694 782 681 782 668 c 1
 604 668 l 1
 604 683 604 698 604 713 c 0
 604 737 603 761 597 785 c 0
 594 791 593 797 589 803 c 0
 585 808 579 812 573 816 c 0
 536 846 494 856 448 865 c 1
 450 865 451 866 451 866 c 0
 451 868 424 869 396 871 c 1
EndSplineSet
Validated: 1
EndChar

StartChar: T
Encoding: 84 84 34
Width: 961
VWidth: 1024
Flags: W
HStem: 1001 13G<386 564.5 902 1033>
VStem: 396 171<580.999 871>
LayerCount: 2
Fore
SplineSet
969 1021 m 1
 1145 966 l 1
 952 954 760 939 567 907 c 1
 575 636 574 375 602 114 c 0
 607 52 620 -7 644 -61 c 1
 466 -73 l 1
 443 -15 429 46 424 111 c 0
 405 285 397 461 396 637 c 0
 395 715 393 793 390 871 c 1
 238 836 85 792 -63 712 c 1
 -240 757 l 1
 -59 860 129 904 316 946 c 0
 340 951 364 955 388 959 c 1
 387 977 387 995 386 1014 c 1
 564 1014 l 1
 565 1004 565 995 565 985 c 1
 700 1002 835 1012 969 1021 c 1
EndSplineSet
Validated: 1
EndChar

StartChar: U
Encoding: 85 85 35
Width: 862
VWidth: 1024
Flags: W
HStem: -123 45<425.056 577.48> 783 97G<-1 181 439 643.5>
VStem: -8 178<356.96 777.203> 633 178<-8.25484 395.859>
LayerCount: 2
Fore
SplineSet
527 -76 m 0
 586 -69 612 -28 625 41 c 1
 630 90 633 140 633 190 c 0
 633 231 631 271 626 312 c 0
 617 382 609 403 592 471 c 0
 552 616 493 756 439 894 c 1
 616 900 l 1
 671 762 730 621 770 476 c 0
 787 406 795 385 804 313 c 0
 809 273 811 232 811 192 c 0
 811 140 808 89 802 38 c 1
 790 -35 781 -78 706 -105 c 1
 645 -118 582 -123 519 -123 c 0
 454 -123 390 -118 326 -109 c 1
 277 -95 233 -68 198 -30 c 0
 139 38 94 116 61 199 c 0
 22 307 -8 415 -8 532 c 0
 -8 534 -8 536 -8 538 c 0
 -6 620 -5 702 3 783 c 1
 181 781 l 1
 173 700 172 619 170 537 c 0
 170 535 170 533 170 531 c 0
 170 417 197 310 239 206 c 0
 272 124 308 48 372 -12 c 0
 407 -45 440 -78 502 -78 c 0
 510 -78 518 -77 527 -76 c 0
EndSplineSet
Validated: 1
EndChar

StartChar: V
Encoding: 86 86 36
Width: 1024
VWidth: 1024
Flags: W
HStem: 770 20G<-92 106 814 993>
LayerCount: 2
Fore
SplineSet
83 790 m 1
 129 725 167 657 206 590 c 0
 270 473 326 354 371 231 c 0
 395 168 413 104 432 41 c 1
 452 89 475 154 490 196 c 0
 525 292 562 389 599 485 c 0
 654 627 720 765 794 900 c 0
 802 913 810 926 818 939 c 1
 993 931 l 1
 985 918 977 906 970 893 c 0
 895 759 829 621 774 480 c 0
 737 384 701 288 665 191 c 0
 649 146 618 59 599 13 c 0
 589 -10 578 -33 568 -56 c 0
 559 -73 552 -91 543 -108 c 0
 536 -119 534 -138 520 -140 c 0
 498 -143 444 -157 396 -157 c 0
 361 -157 328 -149 313 -125 c 0
 308 -117 293 -76 290 -70 c 0
 258 29 233 129 196 226 c 0
 151 348 95 467 31 582 c 0
 -8 649 -45 717 -92 780 c 1
 83 790 l 1
EndSplineSet
Validated: 1
EndChar

StartChar: W
Encoding: 87 87 37
Width: 1264
VWidth: 1024
Flags: W
HStem: 452 147G<-210 0.5 549.5 574>
LayerCount: 2
Fore
SplineSet
983 -112 m 1
 968 -176 l 1
 958 -179 950 -180 935 -183 c 0
 890 -190 856 -194 831 -194 c 0
 771 -194 755 -170 723 -97 c 1
 687 -4 656 89 621 182 c 1
 597 121 577 59 549 -2 c 0
 540 -20 521 -59 507 -77 c 0
 501 -85 493 -91 486 -98 c 1
 440 -99 393 -102 347 -102 c 0
 329 -102 311 -101 293 -100 c 0
 280 -99 257 -68 253 -63 c 0
 226 -28 207 12 183 49 c 0
 123 161 65 276 -13 380 c 0
 -75 457 -137 537 -210 606 c 1
 -36 619 l 1
 37 547 99 468 162 389 c 0
 240 284 297 169 358 56 c 0
 366 46 373 34 381 20 c 1
 405 73 424 128 444 182 c 0
 476 262 496 345 516 428 c 1
 521 446 539 452 560 452 c 0
 588 452 621 443 641 439 c 0
 663 435 684 433 701 431 c 1
 714 402 l 1
 734 358 749 312 766 267 c 0
 791 203 814 139 838 74 c 1
 876 329 904 568 973 799 c 0
 995 871 1009 905 1035 974 c 0
 1062 1048 1095 1120 1132 1190 c 1
 1307 1183 l 1
 1270 1114 1237 1042 1210 969 c 0
 1184 901 1170 866 1149 796 c 0
 1063 511 1037 200 983 -112 c 1
EndSplineSet
Validated: 1
EndChar

StartChar: X
Encoding: 88 88 38
Width: 1040
VWidth: 1024
Flags: W
HStem: 579 20G<689 884> 755 20G<-128 90>
LayerCount: 2
Fore
SplineSet
611 0 m 1
 475 -247 320 -483 164 -718 c 0
 108 -803 49 -886 -11 -969 c 1
 -183 -957 l 1
 -123 -875 -64 -793 -8 -707 c 0
 168 -442 343 -176 491 107 c 1
 375 214 263 326 157 444 c 0
 61 549 -36 653 -128 761 c 1
 44 775 l 1
 136 666 233 563 329 458 c 0
 401 378 475 302 551 227 c 1
 610 349 667 471 711 599 c 1
 884 595 l 1
 831 435 756 284 682 133 c 0
 678 127 675 120 672 114 c 1
 729 62 787 12 846 -37 c 0
 951 -120 1061 -195 1177 -260 c 1
 1005 -280 l 1
 866 -199 732 -104 611 0 c 1
EndSplineSet
Validated: 1
EndChar

StartChar: Y
Encoding: 89 89 39
Width: 754
VWidth: 1024
Flags: W
HStem: 815 20G<529 709>
VStem: 299 178<-285 278.186> 531 178<729.92 830>
LayerCount: 2
Fore
SplineSet
-138 1098 m 1
 40 1098 l 1
 57 1011 88 929 126 849 c 0
 191 714 276 591 367 473 c 0
 379 459 391 445 403 431 c 1
 412 446 420 462 427 479 c 0
 454 549 478 620 500 692 c 0
 511 740 527 786 531 835 c 1
 709 830 l 1
 704 782 689 735 678 688 c 0
 656 615 632 543 605 472 c 0
 580 412 542 359 510 303 c 0
 484 256 481 202 479 149 c 0
 477 91 477 34 477 -24 c 0
 477 -111 478 -197 478 -285 c 1
 300 -285 l 1
 300 -278 300 -271 300 -264 c 0
 300 -181 299 -98 299 -15 c 0
 299 40 299 95 301 150 c 0
 303 205 306 262 332 312 c 0
 339 325 347 338 355 350 c 1
 289 345 l 1
 158 490 35 660 -52 841 c 0
 -90 924 -122 1008 -138 1098 c 1
EndSplineSet
Validated: 1
EndChar

StartChar: Z
Encoding: 90 90 40
Width: 931
VWidth: 1024
Flags: W
HStem: -405 56<1046.57 1272.06> 588 87<243.419 360.67> 639 68<445.167 649>
LayerCount: 2
Fore
SplineSet
524 696 m 0xc0
 575 700 674 707 678 707 c 0
 738 696 798 681 858 668 c 1
 857 658 858 646 842 625 c 0
 792 555 770 538 682 433 c 0
 618 356 488 217 402 138 c 0
 315 58 215 -58 137 -141 c 1
 302 -184 459 -192 641 -238 c 0
 770 -272 922 -327 1067 -347 c 1
 1080 -348 1094 -349 1109 -349 c 0
 1241 -349 1426 -300 1534 -204 c 1
 1716 -212 l 1
 1589 -362 1426 -405 1247 -405 c 0
 1243 -405 1239 -405 1235 -405 c 1
 1034 -395 739 -323 463 -246 c 1
 315 -214 166 -194 18 -163 c 0
 -3 -155 -46 -148 -46 -111 c 0
 -46 -109 -46 -107 -46 -105 c 1
 -32 -50 139 89 227 180 c 0
 316 271 442 395 507 473 c 0
 572 551 603 581 649 639 c 1xa0
 575 634 484 633 434 629 c 0
 384 626 369 621 350 592 c 1
 172 588 l 1
 177 624 213 663 264 675 c 0
 315 686 459 691 524 696 c 0xc0
EndSplineSet
Validated: 1
EndChar

StartChar: a
Encoding: 97 97 41
Width: 504
VWidth: 1024
Flags: W
HStem: 562 20G<268.5 332>
VStem: -1 139<129 297.071>
LayerCount: 2
Fore
SplineSet
306 582 m 1
 358 577 410 573 462 568 c 1
 424 540 385 512 347 484 c 1
 372 481 397 481 422 481 c 0
 449 481 451 454 455 432 c 0
 468 329 468 223 474 119 c 1
 433 119 392 119 352 118 c 0
 325 118 319 124 318 148 c 1
 306 132 294 115 282 99 c 0
 261 75 241 42 206 39 c 0
 162 37 101 33 69 33 c 0
 66 33 64 33 61 33 c 0
 34 34 3 58 2 89 c 0
 0 119 -1 147 -1 176 c 0
 -1 192 -1 208 0 224 c 0
 4 293 30 362 82 409 c 0
 154 470 231 525 306 582 c 1
277 430 m 1
 246 407 200 366 179 333 c 0
 139 277 138 205 138 138 c 0
 138 135 138 132 138 129 c 1
 163 163 213 209 233 255 c 0
 263 313 270 368 277 430 c 1
EndSplineSet
Validated: 1
EndChar

StartChar: b
Encoding: 98 98 42
Width: 745
VWidth: 1024
Flags: W
HStem: 535 20G<562 598.5> 934 20G<4 55.5>
VStem: 558 151<254.547 486.805>
LayerCount: 2
Fore
SplineSet
30 954 m 1
 81 831 136 664 166 580 c 0
 196 497 186 499 210 494 c 1
 306 524 462 546 508 550 c 0
 525 551 549 555 575 555 c 0
 622 555 672 544 689 495 c 1
 702 452 709 406 709 360 c 0
 709 326 705 293 699 260 c 0
 674 143 572 69 480 4 c 1
 266 -128 30 -222 -206 -308 c 1
 -254 -302 -303 -296 -351 -290 c 1
 -164 -226 21 -153 196 -62 c 0
 211 -55 216 -51 216 -50 c 0
 216 -48 211 -47 204 -47 c 0
 200 -47 197 -47 193 -47 c 0
 176 -47 155 -46 152 -35 c 0
 119 79 99 196 76 312 c 0
 36 531 -27 747 -127 947 c 1
 -74 949 -22 951 30 954 c 1
509 515 m 1
 476 508 463 503 409 489 c 0
 361 477 310 457 310 388 c 0
 310 379 310 370 312 360 c 0
 322 295 323 208 323 123 c 0
 323 86 323 50 323 15 c 1
 348 18 402 63 429 89 c 0
 504 150 552 262 556 347 c 0
 557 366 558 382 558 397 c 0
 558 451 549 485 509 515 c 1
EndSplineSet
Validated: 1
EndChar

StartChar: c
Encoding: 99 99 43
Width: 548
VWidth: 1024
Flags: W
HStem: -11 21<394.932 413.125 417.156 496.75> 569 29<292.031 345.292>
VStem: -7 155<132.961 373.022>
LayerCount: 2
Fore
SplineSet
271 601 m 0
 302 601 334 599 366 598 c 1
 357 586 347 574 332 569 c 0
 286 557 242 531 218 489 c 0
 171 409 150 315 149 222 c 0
 149 218 148 213 148 209 c 0
 148 165 167 119 208 97 c 0
 281 57 358 24 441 10 c 0
 477 3 517 6 551 -12 c 1
 506 -15 461 -18 415 -18 c 0
 375 -18 335 -16 296 -11 c 1
 220 3 146 31 79 68 c 0
 41 86 11 118 0 158 c 0
 -5 178 -7 199 -7 220 c 0
 -7 249 -3 278 -0 306 c 0
 12 378 33 450 72 512 c 0
 111 576 190 601 262 601 c 0
 265 601 268 601 271 601 c 0
EndSplineSet
Validated: 1
EndChar

StartChar: d
Encoding: 100 100 44
Width: 459
VWidth: 1024
Flags: W
HStem: 43 59<149.493 262.208>
VStem: 1 144<141.656 304.131> 265 154<161.445 416.774>
LayerCount: 2
Fore
SplineSet
392 496 m 0
 405 426 419 354 419 283 c 0
 419 253 417 223 411 194 c 0
 395 136 366 72 307 48 c 1
 267 46 228 43 188 43 c 0
 154 43 120 45 86 53 c 0
 47 63 5 107 4 141 c 0
 2 157 1 174 1 192 c 0
 1 256 15 328 33 374 c 0
 57 434 135 479 185 515 c 1
 200 514 222 512 238 511 c 1
 206 634 176 771 142 879 c 1
 193 880 244 882 295 883 c 1
 330 754 367 613 392 496 c 0
149 246 m 0
 149 218 145 190 145 162 c 0
 145 148 146 134 149 120 c 1
 154 107 162 102 173 102 c 0
 196 102 227 127 233 140 c 0
 258 186 265 236 265 287 c 0
 265 332 260 376 254 419 c 1
 211 372 153 308 149 246 c 0
EndSplineSet
Validated: 1
EndChar

StartChar: e
Encoding: 101 101 45
Width: 500
VWidth: 1024
Flags: W
HStem: -56 27<473.808 849.125> -47 18<721.844 817.079> 508 58<228.5 291.298>
VStem: 11 149<118.649 299.794> 298 157<352.366 497.202>
LayerCount: 2
Fore
SplineSet
244 566 m 1xb8
 293 566 355 561 400 546 c 0
 439 533 455 491 455 452 c 0
 455 448 454 443 454 439 c 0
 451 393 440 343 402 312 c 0
 371 284 333 260 294 244 c 1
 250 249 206 254 162 259 c 1
 161 249 160 238 160 228 c 0
 160 159 183 89 236 44 c 1
 288 6 355 3 416 -9 c 0
 498 -21 581 -27 664 -29 c 1
 683 -26 702 -24 721 -24 c 0
 739 -24 757 -26 774 -29 c 0xb8
 814 -35 854 -42 893 -47 c 1x78
 815 -53 737 -56 659 -56 c 0
 508 -56 356 -44 206 -20 c 0
 136 -8 69 19 34 98 c 0
 18 134 11 179 11 225 c 0
 11 280 22 336 38 376 c 0
 68 447 81 500 124 534 c 0
 160 562 213 566 244 566 c 1xb8
230 458 m 0
 202 398 175 337 164 271 c 1
 210 291 265 312 283 364 c 0
 293 389 298 417 298 444 c 0
 298 462 296 481 290 498 c 1
 285 505 280 508 275 508 c 0
 257 508 237 471 230 458 c 0
EndSplineSet
Validated: 1
EndChar

StartChar: f
Encoding: 102 102 46
Width: 554
VWidth: 1024
Flags: W
HStem: 446 113<227.094 299.754> 561 20G<297 422.054> 817 29<388.671 469>
VStem: 40 152<27 341>
LayerCount: 2
Fore
SplineSet
373 846 m 0
 378 846 382 846 387 846 c 0
 428 846 471 843 512 843 c 0
 524 843 536 843 548 844 c 1
 469 817 l 1
 418 816 366 800 325 768 c 0
 258 721 240 636 227 560 c 1
 229 559 231 559 233 559 c 0
 251 559 286 577 308 581 c 1
 519 544 l 1
 432 518 265 447 214 446 c 1
 206 306 195 166 192 26 c 1
 142 26 91 26 40 27 c 1
 45 160 53 292 60 425 c 1
 -2 436 -64 446 -126 457 c 1
 -73 465 -21 476 30 490 c 0
 62 500 62 501 72 555 c 0
 85 628 97 710 152 765 c 0
 207 822 287 846 364 846 c 0
 367 846 370 846 373 846 c 0
EndSplineSet
Validated: 1
EndChar

StartChar: g
Encoding: 103 103 47
Width: 634
VWidth: 1024
Flags: W
HStem: -602 27<19.0229 209.074> 455 20G<252 275.5 354.5 380.5> 561 8<480.914 512>
VStem: -0 156<140.849 388.865> 426 152<-313.417 150.104>
LayerCount: 2
Fore
SplineSet
310 570 m 0
 364 570 417 569 471 569 c 0
 485 569 498 569 512 569 c 0
 559 571 521 566 496 561 c 0
 432 543 363 559 300 536 c 0
 207 502 169 397 161 307 c 0
 159 282 156 254 156 228 c 0
 156 188 163 149 195 121 c 1
 234 179 230 251 231 318 c 0
 231 319 231 320 231 321 c 0
 231 344 226 373 226 400 c 0
 226 433 234 463 270 475 c 1
 281 473 292 473 304 473 c 0
 324 473 345 475 364 475 c 0
 397 475 428 470 455 445 c 1
 499 372 527 289 546 206 c 0
 566 108 578 6 578 -94 c 0
 578 -195 566 -296 536 -392 c 1
 517 -472 463 -545 385 -574 c 1
 308 -599 226 -603 145 -603 c 0
 112 -603 80 -602 47 -602 c 0
 41 -602 34 -602 28 -602 c 1
 17 -603 5 -604 -6 -604 c 0
 -84 -604 -161 -580 -223 -532 c 1
 -181 -528 -140 -524 -98 -520 c 1
 -93 -519 -88 -518 -84 -518 c 0
 -49 -518 -22 -553 13 -560 c 1
 45 -570 79 -575 113 -575 c 0
 168 -575 222 -562 271 -539 c 0
 367 -490 394 -377 412 -280 c 0
 422 -219 426 -157 426 -95 c 0
 426 8 414 111 392 211 c 0
 389 227 387 233 386 233 c 0
 382 233 382 175 372 158 c 1
 360 109 321 64 268 64 c 0
 265 64 261 65 258 65 c 0
 199 72 138 65 81 84 c 0
 23 102 -0 165 -0 221 c 0
 -0 222 -0 223 0 224 c 0
 4 329 18 446 96 523 c 0
 152 581 238 565 310 570 c 0
EndSplineSet
Validated: 1
EndChar

StartChar: h
Encoding: 104 104 48
Width: 572
VWidth: 1024
Flags: W
HStem: 373 67<238.789 298.849> 432 20G<362 385.5>
VStem: 0 234<113.052 303.777> 88 148<365.246 372.114 441.715 801.638> 348 156<-110 172.123>
LayerCount: 2
Fore
SplineSet
158 1483 m 1x98
 189 1410 203 1331 212 1252 c 0
 237 1000 233 746 236 493 c 0
 236 490 236 487 236 485 c 0
 236 449 249 440 272 440 c 0x98
 285 440 300 443 318 445 c 0
 337 447 354 452 370 452 c 0x58
 401 452 427 437 450 365 c 0
 487 255 497 49 504 -110 c 1
 452 -110 400 -110 348 -110 c 1
 348 43 310 314 300 348 c 0
 296 364 280 373 266 373 c 0
 249 373 234 363 234 343 c 0
 234 342 234 341 234 340 c 1
 228 258 230 141 197 65 c 0
 182 30 156 20 127 20 c 0
 100 20 70 30 44 37 c 1
 -2 65 4 149 0 202 c 0
 -0 205 -0 209 -0 212 c 0xa8
 -0 277 36 351 87 380 c 1
 88 458 88 537 88 615 c 0
 88 747 87 879 81 1011 c 1
 71 1168 70 1332 1 1477 c 1
 53 1479 106 1481 158 1483 c 1x98
EndSplineSet
Validated: 1
EndChar

StartChar: i
Encoding: 105 105 49
Width: 292
VWidth: 1024
Flags: W
HStem: 491 20G<6 163> 730 45<76.345 231.046>
VStem: 6 154<-66.2692 511>
LayerCount: 2
Fore
SplineSet
76 775 m 1
 120 775 164 775 208 775 c 1
 212 776 216 777 219 777 c 0
 238 777 233 754 235 734 c 1
 191 733 147 733 102 732 c 1
 98 731 95 730 93 730 c 0
 77 730 76 747 76 763 c 0
 76 767 76 771 76 775 c 1
6 511 m 1
 58 511 111 511 163 511 c 1
 162 468 161 425 160 382 c 0
 160 376 160 369 160 363 c 0
 160 304 158 244 158 185 c 0
 158 98 162 11 179 -74 c 0
 191 -129 200 -187 225 -238 c 1
 183 -240 140 -242 98 -243 c 0
 97 -243 97 -243 96 -243 c 0
 90 -243 84 -244 78 -244 c 0
 72 -244 66 -242 66 -234 c 1
 34 -134 19 -29 12 76 c 0
 8 221 11 366 6 511 c 1
EndSplineSet
Validated: 1
EndChar

StartChar: j
Encoding: 106 106 50
Width: 516
VWidth: 1024
Flags: W
HStem: -1003 45<-108.906 2.04688> 547 20G<83 208.5> 875 59<53.1003 158.562> 924 20G<135 168.5>
VStem: 83 160<413.767 559.778> 302 148<-505.807 -150.046>
LayerCount: 2
Fore
SplineSet
161 944 m 1xdc
 176 925 192 906 207 887 c 1
 171 884 134 882 98 879 c 1
 91 876 84 875 78 875 c 0
 45 875 26 907 4 934 c 1xec
 56 937 109 941 161 944 c 1xdc
83 567 m 1
 116 567 149 567 182 567 c 0
 235 563 237 557 243 503 c 0
 260 341 345 199 388 44 c 0
 420 -79 450 -208 450 -336 c 0
 450 -390 444 -445 431 -499 c 1
 391 -636 324 -765 236 -878 c 0
 174 -964 67 -1003 -37 -1003 c 0
 -45 -1003 -52 -1002 -60 -1002 c 0
 -129 -996 -212 -1012 -260 -947 c 1
 -230 -945 -201 -942 -172 -940 c 0
 -155 -940 -138 -935 -122 -935 c 0
 -104 -935 -88 -940 -76 -958 c 1
 -74 -958 -72 -958 -70 -958 c 0
 4 -958 69 -891 113 -835 c 0
 201 -710 281 -569 298 -413 c 0
 301 -389 302 -366 302 -342 c 0
 302 -213 267 -86 237 39 c 1
 184 214 86 379 83 567 c 1
EndSplineSet
Validated: 1
EndChar

StartChar: k
Encoding: 107 107 51
Width: 658
VWidth: 1024
Flags: W
HStem: 487 20G<263 311> 918 20G<29 75.5>
VStem: -101 156<854.975 934> 20 150<24 160.648>
LayerCount: 2
Fore
SplineSet
55 938 m 5xe0
 96 757 139 576 152 391 c 5
 197 429 241 468 285 507 c 5
 337 502 389 498 441 493 c 5
 397 458 351 420 312 384 c 4
 273 348 239 327 198 289 c 4
 184 277 178 267 178 259 c 4
 178 241 207 229 262 207 c 4
 344 175 525 118 649 55 c 5
 598 49 546 44 495 38 c 5
 391 90 278 121 170 164 c 5
 167 151 166 137 166 124 c 4
 166 95 170 67 170 38 c 4
 170 33 170 29 170 24 c 5
 120 24 70 24 20 24 c 5xd0
 19 112 17 201 12 289 c 4
 3 508 -43 724 -101 934 c 5
 -49 936 3 937 55 938 c 5xe0
EndSplineSet
Validated: 1
EndChar

StartChar: l
Encoding: 108 108 52
Width: 283
VWidth: 1024
Flags: W
HStem: 25 21G<68 223> 1052 20G<7 53>
VStem: 68 155<25 336.457>
LayerCount: 2
Fore
SplineSet
33 1072 m 1
 73 960 117 849 144 733 c 0
 196 501 213 262 223 25 c 1
 171 25 120 25 68 25 c 1
 68 202 59 380 32 556 c 0
 8 733 -54 903 -124 1067 c 1
 -72 1068 -19 1070 33 1072 c 1
EndSplineSet
Validated: 1
EndChar

StartChar: m
Encoding: 109 109 53
Width: 860
VWidth: 1024
Flags: W
HStem: 44 430<30.375 163.13> 461 12<-29.7791 -6.08469> 662 20G<549 617.5>
VStem: 675 152<-101.545 344.327>
LayerCount: 2
Fore
SplineSet
583 682 m 1xb0
 585 682 587 682 589 682 c 0
 646 682 705 668 739 621 c 0
 775 572 790 457 804 362 c 1
 815 254 827 146 827 37 c 0
 827 -10 824 -58 819 -105 c 1
 768 -105 717 -104 666 -103 c 1
 671 -72 674 -39 675 -7 c 0
 675 6 675 19 675 31 c 0
 675 177 664 323 636 465 c 1
 624 500 625 548 602 575 c 1
 557 518 526 449 498 382 c 1
 475 339 469 290 446 248 c 1
 414 236 375 224 338 224 c 0
 322 224 307 226 293 231 c 1
 248 258 233 320 195 348 c 1
 185 256 175 164 165 72 c 0
 160 42 156 40 125 40 c 2
 7 44 l 1xb0
 17 153 40 278 40 388 c 0
 40 392 40 397 40 401 c 1
 38 406 37 410 37 414 c 0
 37 432 70 423 75 431 c 1
 42 454 -1 452 -39 461 c 1
 -39 462 l 0
 -39 470 12 471 30 473 c 0x70
 38 473 46 474 54 474 c 0
 132 474 225 453 267 429 c 0
 303 408 316 384 331 384 c 0
 336 384 341 386 346 390 c 1
 372 462 418 538 452 595 c 0
 485 649 522 682 576 682 c 0
 578 682 581 682 583 682 c 1xb0
EndSplineSet
Validated: 1
EndChar

StartChar: n
Encoding: 110 110 54
Width: 681
VWidth: 1024
Flags: W
HStem: 581 57<310.722 366.06>
VStem: 503 153<-135 179.797>
LayerCount: 2
Fore
SplineSet
65 641 m 1
 83 599 97 556 109 512 c 1
 135 545 164 578 199 602 c 0
 242 630 291 638 341 638 c 0
 379 638 419 633 457 630 c 1
 501 608 529 563 553 522 c 0
 606 437 622 336 633 238 c 0
 649 114 647 -11 656 -135 c 1
 605 -136 554 -136 503 -137 c 1
 498 -54 499 29 494 112 c 0
 485 215 477 320 444 419 c 0
 423 474 395 529 355 573 c 1
 349 578 344 581 339 581 c 0
 325 581 312 561 287 530 c 0
 253 487 204 402 197 327 c 1
 180 327 163 327 146 327 c 1
 161 230 168 132 175 34 c 1
 124 33 74 33 23 33 c 1
 20 98 17 164 10 229 c 0
 -6 366 -28 508 -92 632 c 1
 -40 635 13 638 65 641 c 1
EndSplineSet
Validated: 1
EndChar

StartChar: o
Encoding: 111 111 55
Width: 874
VWidth: 1024
Flags: W
HStem: 37 26<435.625 601.1> 637 31<349.141 423.499> 642 35<361.949 521.326> 674 20G<161.5 221>
VStem: -12 156<156.898 308.803> 669 158<129.287 451.346>
LayerCount: 2
Fore
SplineSet
203 694 m 1x9c
 239 692 275 690 310 688 c 0
 322 686 355 690 355 679 c 0
 355 677 353 673 349 669 c 1
 352 668 356 668 361 668 c 0xdc
 381 668 417 674 458 676 c 0
 468 676 477 677 486 677 c 0xac
 527 677 565 673 617 663 c 0
 682 650 727 596 767 535 c 0
 806 475 827 394 827 317 c 0
 827 316 827 314 827 312 c 0
 823 242 826 164 797 111 c 0
 770 58 727 39 681 39 c 0
 680 39 679 39 678 39 c 0
 609 39 539 37 469 37 c 0
 380 37 291 39 202 49 c 0
 129 57 45 77 2 143 c 1
 -8 163 -12 184 -12 206 c 0
 -12 244 -1 282 12 316 c 0
 63 448 120 579 203 694 c 1x9c
328 637 m 1
 275 559 232 474 196 387 c 0
 176 333 144 281 144 221 c 0
 144 218 144 216 144 213 c 0
 144 212 144 212 144 211 c 0
 144 159 193 126 238 110 c 0
 307 86 382 84 454 73 c 1
 484 72 515 63 546 63 c 0
 560 63 573 65 587 70 c 0
 640 88 662 123 667 198 c 0
 668 214 669 234 669 255 c 0
 669 330 661 427 635 490 c 0
 602 571 590 588 532 620 c 0
 500 637 463 642 425 642 c 0xac
 393 642 359 638 328 637 c 1
EndSplineSet
Validated: 1
EndChar

StartChar: p
Encoding: 112 112 56
Width: 508
VWidth: 1024
Flags: W
HStem: -594 21G<69 108.5> 771 20G<66 208>
VStem: 46 126<202.292 452.661> 66 157<671.572 790.884> 304 141<335.719 519.111>
LayerCount: 2
Fore
SplineSet
66 791 m 1xd8
 110 791 154 791 198 791 c 0
 218 791 223 781 223 766 c 0xd8
 223 749 215 726 215 710 c 0
 215 708 215 707 215 706 c 1
 215 703 215 701 215 698 c 0
 215 663 242 670 287 663 c 0
 336 654 375 631 416 557 c 0
 435 524 445 473 445 419 c 0
 445 353 431 284 399 234 c 0
 340 142 257 85 165 41 c 1
 150 -171 123 -383 94 -594 c 1
 44 -593 -7 -592 -58 -591 c 1
 -18 -389 6 -183 22 23 c 1
 -1 26 -23 28 -45 31 c 1
 -22 42 1 53 25 64 c 1
 35 207 42 371 46 493 c 0xe8
 50 608 66 683 66 775 c 0
 66 781 66 786 66 791 c 1xd8
205 614 m 1
 196 511 172 231 172 168 c 1xe8
 234 231 304 347 304 429 c 0
 304 434 304 438 303 443 c 0
 295 525 255 571 205 614 c 1
EndSplineSet
Validated: 1
EndChar

StartChar: q
Encoding: 113 113 57
Width: 766
VWidth: 1024
Flags: W
HStem: -452 65<869.149 953.726> 78 93<158.698 222.33> 690 20G<264 321.5>
VStem: 0 154<173.698 322.029>
LayerCount: 2
Fore
SplineSet
302 710 m 1
 341 707 379 704 418 701 c 0
 437 701 454 701 454 693 c 0
 454 689 449 683 435 674 c 0
 423 665 418 659 418 655 c 0
 418 645 444 643 461 635 c 1
 530 518 589 395 632 266 c 0
 691 85 742 -98 800 -279 c 0
 814 -319 822 -376 858 -376 c 0
 891 -380 934 -383 958 -387 c 0
 981 -391 995 -392 998 -397 c 0
 998 -406 928 -452 888 -452 c 0
 887 -452 l 0
 886 -452 l 0
 872 -452 868 -458 868 -468 c 0
 868 -485 880 -511 884 -531 c 1
 833 -532 783 -534 732 -536 c 1
 698 -431 667 -326 636 -221 c 0
 572 -16 520 195 434 392 c 1
 432 328 386 184 339 133 c 0
 292 82 199 88 135 79 c 0
 131 78 127 78 123 78 c 0
 63 78 13 137 4 196 c 0
 1 212 0 228 0 244 c 0
 0 291 12 340 46 400 c 0
 91 480 226 627 302 710 c 1
294 498 m 1
 278 469 185 349 171 312 c 0
 164 293 154 255 154 224 c 0
 154 195 162 171 189 171 c 0
 191 171 194 172 196 172 c 0
 261 181 294 412 294 494 c 0
 294 496 294 497 294 498 c 1
EndSplineSet
Validated: 1
EndChar

StartChar: r
Encoding: 114 114 58
Width: 492
VWidth: 1024
Flags: W
HStem: 758 12G<80.5 112.5 302.5 361.5>
VStem: 120 155<49 138.712>
LayerCount: 2
Fore
SplineSet
336 790 m 1
 387 786 438 782 489 778 c 1
 456 749 426 717 396 686 c 0
 307 596 220 496 185 372 c 1
 200 313 216 255 235 198 c 1
 257 151 265 99 275 49 c 1
 223 48 172 46 120 45 c 1
 111 87 102 129 90 170 c 0
 70 226 54 284 40 342 c 1
 34 342 21 340 22 344 c 2
 31 380 l 1
 23 418 15 456 7 494 c 0
 -9 582 -28 669 -50 755 c 1
 2 756 54 757 107 758 c 1
 118 700 131 643 142 585 c 1
 202 658 269 725 336 790 c 1
EndSplineSet
Validated: 1
EndChar

StartChar: s
Encoding: 115 115 59
Width: 690
VWidth: 1024
Flags: W
HStem: 617 26<414.131 485.422>
VStem: -17 156<202.273 319.975> 507 145<-117.818 -26.7146>
LayerCount: 2
Fore
SplineSet
136 -285 m 1
 145 -278 233 -265 279 -247 c 1
 359 -214 446 -178 496 -104 c 0
 504 -94 507 -84 507 -73 c 0
 507 -46 484 -20 460 -6 c 0
 376 46 281 75 189 108 c 0
 127 135 52 144 4 196 c 0
 -11 214 -17 234 -17 256 c 0
 -17 289 -2 324 16 351 c 0
 54 404 83 462 119 517 c 0
 172 602 274 644 372 644 c 0
 375 644 379 644 382 644 c 0
 391 644 400 644 409 644 c 0
 475 643 l 1
 508 654 491 618 471 617 c 0
 399 608 327 576 282 516 c 1
 236 444 188 374 148 298 c 0
 142 286 139 273 139 260 c 0
 139 227 158 193 191 181 c 0
 296 141 405 110 509 67 c 0
 560 43 626 22 646 -38 c 0
 650 -50 652 -62 652 -74 c 0
 652 -116 627 -157 592 -182 c 0
 501 -249 390 -287 280 -308 c 1
 224 -305 194 -299 136 -285 c 1
EndSplineSet
Validated: 1
EndChar

StartChar: t
Encoding: 116 116 60
Width: 613
VWidth: 1024
Flags: W
HStem: -9 28<242.454 475.076> -9 16<582.962 616.249> 696 20G<198 235.5> 1014 20G<16 173>
VStem: 22 146<66.7706 529.996 700.007 1034>
LayerCount: 2
Fore
SplineSet
16 1034 m 1xb8
 69 1034 121 1034 173 1034 c 1
 171 949 170 861 170 780 c 0
 170 758 169 741 169 728 c 0
 169 709 171 700 178 700 c 0
 183 700 191 705 205 716 c 1
 266 705 327 693 388 681 c 1
 325 641 241 593 169 572 c 1
 169 532 168 492 168 452 c 0
 168 396 169 339 170 283 c 0
 173 219 169 157 175 93 c 1
 193 34 263 25 316 19 c 0
 327 19 338 19 349 19 c 0xb8
 392 19 436 21 477 33 c 1
 622 7 l 1
 622 7 622 7 622 6 c 0
 622 -7 578 -9 544 -9 c 0
 534 -9 525 -9 518 -9 c 0x78
 501 -9 484 -9 467 -9 c 0
 432 -9 397 -9 362 -9 c 0
 286 -9 211 -7 136 4 c 0
 85 12 21 40 18 100 c 0
 18 112 18 124 18 136 c 0
 18 257 22 378 22 498 c 0
 22 524 15 530 4 530 c 0
 -8 530 -25 523 -44 522 c 1
 -106 538 -168 553 -230 568 c 1
 -144 574 -61 597 21 623 c 1
 20 760 20 897 16 1034 c 1xb8
EndSplineSet
Validated: 1
EndChar

StartChar: u
Encoding: 117 117 61
Width: 554
VWidth: 1024
Flags: W
HStem: 103 41<159.3 223.067> 482 17G<13 42.5 355 364.5>
VStem: 4 154<144.736 430.874> 18 151<172.173 438.952 439.472 480.035> 355 157<29.0006 132.39 329.814 516.978>
LayerCount: 2
Fore
SplineSet
355 519 m 1xe8
 374 517 398 517 421 517 c 0
 443 517 463 517 476 517 c 0
 481 517 485 517 488 517 c 0
 503 517 512 514 512 491 c 0
 512 488 512 486 512 483 c 0
 510 408 509 332 509 256 c 0
 509 180 510 104 511 29 c 1
 465 29 420 29 375 29 c 0
 357 31 357 43 357 62 c 0
 357 71 358 82 358 93 c 0
 358 106 357 120 354 133 c 1
 304 110 240 103 191 103 c 0
 181 103 172 104 164 104 c 0
 113 106 90 104 59 111 c 0
 29 117 4 145 4 172 c 0
 4 173 4 173 4 174 c 0xe8
 6 280 8 376 18 482 c 1
 67 481 115 480 164 480 c 1
 165 480 166 480 167 480 c 0
 173 480 175 477 175 472 c 0
 175 463 168 449 168 439 c 0
 168 438 169 436 169 435 c 1xd8
 159 347 160 257 158 168 c 0
 158 150 166 144 177 144 c 0
 190 144 208 154 219 161 c 0
 263 185 287 229 308 272 c 0
 336 324 351 381 354 439 c 0
 355 447 356 455 356 464 c 0
 356 478 355 491 355 505 c 0
 355 510 355 514 355 519 c 1xe8
EndSplineSet
Validated: 1
EndChar

StartChar: v
Encoding: 118 118 62
Width: 734
VWidth: 1024
Flags: W
HStem: 544 60G<5 162.5 534.5 591.5>
VStem: 5 171<408.466 542.761>
LayerCount: 2
Fore
SplineSet
566 624 m 1
 617 622 667 619 718 617 c 1
 662 495 601 374 548 250 c 0
 494 131 451 4 366 -97 c 1
 320 -102 262 -110 229 -112 c 0
 226 -112 223 -112 219 -112 c 0
 189 -112 160 -103 149 -66 c 0
 131 17 108 99 87 182 c 0
 58 302 13 420 5 544 c 1
 55 544 105 544 155 544 c 1
 170 518 163 464 176 428 c 1
 210 289 248 152 284 14 c 1
 319 72 345 134 373 196 c 0
 433 340 503 481 566 624 c 1
EndSplineSet
Validated: 1
EndChar

StartChar: w
Encoding: 119 119 63
Width: 802
VWidth: 1024
Flags: W
HStem: 5 379<348.375 450.203> 54 451<595 719.786> 433 20G<32 109>
VStem: 597 153<250 503.479>
LayerCount: 2
Fore
SplineSet
595 505 m 1x50
 632 505 668 505 705 505 c 0
 721 502 750 509 750 484 c 0
 749 452 749 418 749 383 c 0
 749 325 750 266 750 221 c 0
 750 200 749 182 749 168 c 0
 748 103 740 81 721 71 c 1
 695 65 675 67 649 62 c 1
 631 61 610 54 591 54 c 0x50
 581 54 571 56 562 61 c 1
 521 97 502 152 470 196 c 1
 469 181 469 165 469 150 c 0
 469 141 469 133 469 124 c 0
 469 84 467 45 451 8 c 1
 434 6 417 5 400 5 c 0
 360 5 321 9 281 10 c 1
 249 39 225 74 200 108 c 0
 106 222 26 352 -98 437 c 1
 -46 442 6 447 58 453 c 1
 160 375 231 267 311 168 c 1
 314 172 315 183 315 196 c 0
 315 213 314 235 314 252 c 0
 314 256 314 260 314 263 c 0
 314 266 314 269 314 272 c 0
 314 284 313 298 313 311 c 0
 313 341 318 370 348 383 c 1
 356 384 364 384 372 384 c 0xb0
 420 384 467 369 515 368 c 1
 546 331 572 291 597 250 c 1
 597 335 596 420 595 505 c 1x50
EndSplineSet
Validated: 1
EndChar

StartChar: x
Encoding: 120 120 64
Width: 668
VWidth: 1024
Flags: W
HStem: -16 21G<456 517>
LayerCount: 2
Fore
SplineSet
126 443 m 1
 177 383 230 324 285 268 c 1
 357 319 430 369 497 427 c 1
 543 423 579 419 625 416 c 0
 641 414 634 399 622 389 c 0
 538 321 445 266 363 195 c 1
 450 122 543 56 642 -0 c 1
 592 -5 542 -11 492 -16 c 1
 420 26 351 73 285 124 c 1
 249 90 216 62 179 18 c 0
 143 -27 119 -95 96 -154 c 1
 44 -153 -8 -151 -60 -149 c 1
 -42 -105 -37 -72 -8 -17 c 0
 22 37 103 115 148 151 c 0
 166 165 182 180 199 196 c 1
 122 269 41 355 -31 433 c 1
 21 436 73 440 126 443 c 1
EndSplineSet
Validated: 1
EndChar

StartChar: y
Encoding: 121 121 65
Width: 572
VWidth: 1024
Flags: W
HStem: -946 52<-381.833 -240.598> 471 163G<50.5 120 405 486.5>
LayerCount: 2
Fore
SplineSet
460 654 m 1
 513 649 565 643 617 638 c 1
 551 605 512 559 481 472 c 0
 451 386 436 292 393 148 c 0
 351 3 326 -236 261 -405 c 0
 196 -574 88 -745 -21 -837 c 0
 -130 -929 -230 -942 -317 -945 c 0
 -332 -945 -347 -946 -361 -946 c 0
 -427 -946 -475 -937 -499 -878 c 1
 -494 -878 -488 -878 -483 -878 c 0
 -468 -878 -454 -878 -440 -878 c 0
 -422 -878 -404 -877 -383 -872 c 1
 -358 -888 -340 -894 -316 -894 c 0
 -305 -894 -292 -893 -276 -890 c 0
 -204 -871 -29 -692 58 -521 c 0
 144 -350 204 -11 229 91 c 0
 251 180 252 199 252 203 c 0
 252 204 l 1
 140 262 54 388 -47 461 c 1
 -8 464 31 468 70 471 c 0
 74 471 78 471 82 471 c 0
 158 471 174 418 201 388 c 0
 222 363 257 317 276 317 c 0
 282 317 287 322 289 334 c 0
 313 453 350 588 460 654 c 1
EndSplineSet
Validated: 1
EndChar

StartChar: z
Encoding: 122 122 66
Width: 834
VWidth: 1024
Flags: W
HStem: -42 33<613.638 695.719> 493 25<259.797 350.753> 556 20G<628.5 664.5>
LayerCount: 2
Fore
SplineSet
654 576 m 0
 675 575 696 574 717 571 c 1
 719 567 719 563 719 560 c 0
 719 533 687 507 672 486 c 1
 568 377 447 285 329 192 c 0
 275 148 215 109 167 59 c 0
 160 52 157 47 157 43 c 0
 157 30 190 29 205 28 c 0
 301 22 398 23 494 16 c 1
 594 14 703 -7 793 -9 c 1
 770 -23 714 -33 670 -39 c 0
 653 -41 633 -42 612 -42 c 0
 582 -42 551 -40 524 -38 c 0
 395 -19 280 -4 150 1 c 0
 105 4 57 -2 16 19 c 1
 5 27 1 36 1 44 c 0
 1 67 31 91 49 104 c 0
 214 236 394 354 533 514 c 1
 465 498 395 493 325 493 c 0
 319 493 313 493 307 493 c 1
 254 500 201 510 148 518 c 1
 159 518 173 517 188 517 c 0
 209 517 232 518 252 519 c 0
 337 522 420 544 502 565 c 0
 552 579 603 574 654 576 c 0
EndSplineSet
Validated: 1
EndChar

